<svg width="265" height="67" viewBox="0 0 265 67" fill="none" xmlns="http://www.w3.org/2000/svg">
<g filter="url(#filter0_f_0_1)">
<path d="M33.4871 50.9892C26.2951 51.1165 19.7573 48.4446 19.7573 48.4446C19.7573 48.4446 24.7262 47.8084 27.3415 42.3374C29.7892 37.2171 29.0414 35.5941 29.0414 35.5941C25.7365 37.2444 22.2338 37.3286 18.0575 36.4847C18.0575 36.4847 26.1645 32.9222 28.3876 27.8329C30.1031 23.9054 30.2182 24.0159 30.2182 24.0159C30.2182 24.0159 27.7338 25.0338 26.0339 25.0338C24.334 25.0338 23.9417 24.9065 23.9417 24.9065C23.9417 24.9065 29.0412 21.7258 31.5259 16.2547C34.0104 10.7837 33.4874 9.7659 33.4874 9.7659C34.7251 16.1856 36.0612 18.0865 42.902 24.2704C42.902 24.2704 38.1947 25.2883 37.0176 24.5248C35.8408 23.7614 36.2331 23.7614 36.2331 23.7614C38.5508 29.5793 40.3201 31.7661 48.394 35.7212C48.394 35.7212 42.2668 37.2055 38.0639 35.8484C39.6845 44.0962 49 48.4876 49 48.4876C41.939 50.2688 42.8553 50.8651 33.4872 50.9892L33.4871 50.9892ZM30.6104 48.1901H37.4454V55.7306H30.6104V48.1901Z" fill="#03693E" stroke="#03693E" stroke-width="6.32727"/>
</g>
<path d="M37.1897 48.2896H30.4243V56H37.1897V48.2896Z" fill="#03693E" stroke="#03693E" stroke-width="6.36547"/>
<path d="M33.2723 51.1524C26.1536 51.2824 19.6825 48.5504 19.6825 48.5504C19.6825 48.5504 24.6008 47.8999 27.1894 42.3056C29.6121 37.0699 28.8719 35.4102 28.8719 35.4102C25.6007 37.0978 22.1337 37.1839 18 36.321C18 36.321 26.0244 32.6782 28.2248 27.4741C29.9228 23.4581 30.0368 23.5711 30.0368 23.5711C30.0368 23.5711 27.5776 24.612 25.8951 24.612C24.2125 24.612 23.8242 24.4819 23.8242 24.4819C23.8242 24.4819 28.8718 21.2294 31.3311 15.635C33.7903 10.0407 33.2726 9 33.2726 9C34.4977 15.5644 35.8201 17.5082 42.5912 23.8314C42.5912 23.8314 37.9319 24.8722 36.7668 24.0915C35.602 23.3109 35.9903 23.3109 35.9903 23.3109C38.2843 29.2599 40.0357 31.496 48.0272 35.5403C48.0272 35.5403 41.9624 37.058 37.8025 35.6704C39.4065 44.104 48.627 48.5944 48.627 48.5944C41.638 50.4157 42.545 51.0254 33.2724 51.1523L33.2723 51.1524Z" fill="#03693E" stroke="#03693E" stroke-width="6.36547"/>
<path d="M33.3111 13.2478C32.3263 16.0203 31.0017 18.7191 29.0782 20.9483C28.2747 21.9059 27.3934 22.7966 26.4536 23.6206C27.7064 23.4783 28.8757 22.9711 30.0729 22.596C30.5759 22.491 31.1168 22.8841 31.111 23.4149C31.1387 23.7928 30.8742 24.0858 30.6665 24.3658C29.8246 25.8605 29.3665 27.5538 28.4789 29.0294C27.6421 30.5074 26.4274 31.7159 25.1701 32.8343C23.8564 33.9688 22.4144 34.9478 20.9198 35.8256C23.68 36.1053 26.5804 35.726 28.9821 34.2692C29.2145 34.1484 29.5294 34.2782 29.5637 34.5534C30.1717 35.8882 29.8953 37.425 29.5072 38.7815C28.8094 41.2482 27.8008 43.6785 26.1721 45.669C25.1643 46.8556 23.9305 47.853 22.5461 48.5504C25.4102 49.4396 28.3722 50.0017 31.3654 50.1786V55.0522H36.2462V50.1284C39.1162 50.0959 41.9896 49.6723 44.6976 48.7186C45.203 48.5672 45.7094 48.4185 46.2168 48.2742C42.8007 46.066 39.7841 43.0904 38.0201 39.3715C37.2639 37.7528 36.8051 35.9989 36.6151 34.2215C39.2641 35.4565 42.2935 35.4748 45.141 35.085C42.3004 33.5247 39.4907 31.6489 37.6737 28.8974C36.4403 27.0472 35.5449 24.9786 34.8745 22.8609C34.8539 22.2205 35.792 21.9356 36.1712 22.4197C36.7056 22.8499 37.2456 23.4983 38.0036 23.4218C38.8695 23.4554 39.731 23.3649 40.5848 23.229C38.2136 20.9705 35.8095 18.6308 34.2998 15.6797C33.9101 14.9003 33.5801 14.0532 33.3112 13.2474L33.3111 13.2478Z" fill="url(#paint0_linear_0_1)"/>
<path d="M97.6094 15.6719C97.2839 15.6849 96.9062 15.763 96.4766 15.9062C96.0469 16.0365 95.6497 16.2122 95.2852 16.4336C94.8294 16.7201 94.4583 17.0521 94.1719 17.4297C93.8984 17.7943 93.6576 18.3086 93.4492 18.9727C92.5247 21.9805 91.4505 25.4961 90.2266 29.5195C89.0026 33.5299 87.681 37.8073 86.2617 42.3516H84.4648L77.4727 21.0234L70.1875 42.3516H68.4688C67.1797 37.7943 65.8451 33.0677 64.4648 28.1719C63.0846 23.263 62.1602 19.9753 61.6914 18.3086C61.5742 17.9049 61.3984 17.5469 61.1641 17.2344C60.9427 16.9219 60.6367 16.6354 60.2461 16.375C59.9206 16.1536 59.5365 15.9909 59.0938 15.8867C58.6641 15.7695 58.2734 15.6979 57.9219 15.6719V14.2852H69.2305V15.6719C68.2409 15.724 67.3945 15.8216 66.6914 15.9648C66.0013 16.1081 65.6562 16.349 65.6562 16.6875C65.6562 16.8177 65.6758 16.9935 65.7148 17.2148C65.7539 17.4232 65.7865 17.5924 65.8125 17.7227C66.112 18.8685 66.6393 20.763 67.3945 23.4062C68.1628 26.0365 69.2956 29.9818 70.793 35.2422L77.707 14.6758H79.6211L86.5938 35.6914C87.5312 32.4622 88.3385 29.6432 89.0156 27.2344C89.6927 24.8125 90.2526 22.7422 90.6953 21.0234C91.0078 19.8125 91.2031 18.9857 91.2812 18.543C91.3594 18.0872 91.3984 17.7031 91.3984 17.3906C91.3984 16.9479 91.0924 16.5768 90.4805 16.2773C89.8815 15.9779 88.9049 15.776 87.5508 15.6719V14.2852H97.6094V15.6719ZM116.672 41.6484C116.06 41.8698 115.52 42.0456 115.051 42.1758C114.595 42.319 114.074 42.3906 113.488 42.3906C112.473 42.3906 111.659 42.1562 111.047 41.6875C110.448 41.2057 110.064 40.5091 109.895 39.5977H109.777C108.931 40.5352 108.02 41.2513 107.043 41.7461C106.079 42.2409 104.914 42.4883 103.547 42.4883C102.102 42.4883 100.91 42.0456 99.9727 41.1602C99.0482 40.2747 98.5859 39.1159 98.5859 37.6836C98.5859 36.9414 98.6901 36.2773 98.8984 35.6914C99.1068 35.1055 99.4193 34.5781 99.8359 34.1094C100.161 33.7188 100.591 33.3737 101.125 33.0742C101.659 32.7617 102.16 32.5143 102.629 32.332C103.215 32.1107 104.4 31.7005 106.184 31.1016C107.98 30.5026 109.191 30.0339 109.816 29.6953V27.7617C109.816 27.5924 109.777 27.2669 109.699 26.7852C109.634 26.3034 109.484 25.8477 109.25 25.418C108.99 24.9362 108.618 24.5195 108.137 24.168C107.668 23.8034 106.997 23.6211 106.125 23.6211C105.526 23.6211 104.966 23.7253 104.445 23.9336C103.938 24.1289 103.579 24.3372 103.371 24.5586C103.371 24.819 103.43 25.2031 103.547 25.7109C103.677 26.2188 103.742 26.6875 103.742 27.1172C103.742 27.5729 103.534 27.9896 103.117 28.3672C102.714 28.7448 102.147 28.9336 101.418 28.9336C100.767 28.9336 100.285 28.7057 99.9727 28.25C99.6732 27.7812 99.5234 27.2604 99.5234 26.6875C99.5234 26.0885 99.7318 25.5156 100.148 24.9688C100.578 24.4219 101.132 23.9336 101.809 23.5039C102.395 23.1393 103.104 22.8333 103.938 22.5859C104.771 22.3255 105.585 22.1953 106.379 22.1953C107.473 22.1953 108.423 22.2734 109.23 22.4297C110.051 22.5729 110.793 22.8919 111.457 23.3867C112.121 23.8685 112.622 24.526 112.961 25.3594C113.312 26.1797 113.488 27.2409 113.488 28.543C113.488 30.4049 113.469 32.0586 113.43 33.5039C113.391 34.9362 113.371 36.5052 113.371 38.2109C113.371 38.7188 113.456 39.1224 113.625 39.4219C113.807 39.7214 114.081 39.9753 114.445 40.1836C114.641 40.3008 114.947 40.3659 115.363 40.3789C115.793 40.3919 116.229 40.3984 116.672 40.3984V41.6484ZM109.855 31.3359C108.749 31.6615 107.779 31.9805 106.945 32.293C106.112 32.6055 105.337 32.9961 104.621 33.4648C103.97 33.9076 103.456 34.4349 103.078 35.0469C102.701 35.6458 102.512 36.362 102.512 37.1953C102.512 38.276 102.792 39.0703 103.352 39.5781C103.924 40.0859 104.647 40.3398 105.52 40.3398C106.444 40.3398 107.258 40.1185 107.961 39.6758C108.664 39.2201 109.257 38.6862 109.738 38.0742L109.855 31.3359ZM127.609 42H118.215V40.7109C118.514 40.6849 118.833 40.6589 119.172 40.6328C119.51 40.5938 119.79 40.5417 120.012 40.4766C120.376 40.3594 120.65 40.1576 120.832 39.8711C121.014 39.5716 121.105 39.1875 121.105 38.7188V16.4141C121.105 15.9453 121.001 15.5091 120.793 15.1055C120.598 14.6888 120.337 14.3633 120.012 14.1289C119.777 13.9727 119.348 13.8294 118.723 13.6992C118.098 13.569 117.596 13.4909 117.219 13.4648V12.2148L124.465 11.7656L124.738 12.0586V38.4844C124.738 38.9401 124.823 39.3177 124.992 39.6172C125.161 39.9036 125.435 40.125 125.812 40.2812C126.099 40.4115 126.379 40.5091 126.652 40.5742C126.939 40.6393 127.258 40.6849 127.609 40.7109V42ZM139.055 42H129.66V40.7109C129.96 40.6849 130.279 40.6589 130.617 40.6328C130.956 40.5938 131.236 40.5417 131.457 40.4766C131.822 40.3594 132.095 40.1576 132.277 39.8711C132.46 39.5716 132.551 39.1875 132.551 38.7188V16.4141C132.551 15.9453 132.447 15.5091 132.238 15.1055C132.043 14.6888 131.783 14.3633 131.457 14.1289C131.223 13.9727 130.793 13.8294 130.168 13.6992C129.543 13.569 129.042 13.4909 128.664 13.4648V12.2148L135.91 11.7656L136.184 12.0586V38.4844C136.184 38.9401 136.268 39.3177 136.438 39.6172C136.607 39.9036 136.88 40.125 137.258 40.2812C137.544 40.4115 137.824 40.5091 138.098 40.5742C138.384 40.6393 138.703 40.6849 139.055 40.7109V42ZM159.719 41.6484C159.107 41.8698 158.566 42.0456 158.098 42.1758C157.642 42.319 157.121 42.3906 156.535 42.3906C155.52 42.3906 154.706 42.1562 154.094 41.6875C153.495 41.2057 153.111 40.5091 152.941 39.5977H152.824C151.978 40.5352 151.066 41.2513 150.09 41.7461C149.126 42.2409 147.961 42.4883 146.594 42.4883C145.148 42.4883 143.957 42.0456 143.02 41.1602C142.095 40.2747 141.633 39.1159 141.633 37.6836C141.633 36.9414 141.737 36.2773 141.945 35.6914C142.154 35.1055 142.466 34.5781 142.883 34.1094C143.208 33.7188 143.638 33.3737 144.172 33.0742C144.706 32.7617 145.207 32.5143 145.676 32.332C146.262 32.1107 147.447 31.7005 149.23 31.1016C151.027 30.5026 152.238 30.0339 152.863 29.6953V27.7617C152.863 27.5924 152.824 27.2669 152.746 26.7852C152.681 26.3034 152.531 25.8477 152.297 25.418C152.036 24.9362 151.665 24.5195 151.184 24.168C150.715 23.8034 150.044 23.6211 149.172 23.6211C148.573 23.6211 148.013 23.7253 147.492 23.9336C146.984 24.1289 146.626 24.3372 146.418 24.5586C146.418 24.819 146.477 25.2031 146.594 25.7109C146.724 26.2188 146.789 26.6875 146.789 27.1172C146.789 27.5729 146.581 27.9896 146.164 28.3672C145.76 28.7448 145.194 28.9336 144.465 28.9336C143.814 28.9336 143.332 28.7057 143.02 28.25C142.72 27.7812 142.57 27.2604 142.57 26.6875C142.57 26.0885 142.779 25.5156 143.195 24.9688C143.625 24.4219 144.178 23.9336 144.855 23.5039C145.441 23.1393 146.151 22.8333 146.984 22.5859C147.818 22.3255 148.632 22.1953 149.426 22.1953C150.52 22.1953 151.47 22.2734 152.277 22.4297C153.098 22.5729 153.84 22.8919 154.504 23.3867C155.168 23.8685 155.669 24.526 156.008 25.3594C156.359 26.1797 156.535 27.2409 156.535 28.543C156.535 30.4049 156.516 32.0586 156.477 33.5039C156.438 34.9362 156.418 36.5052 156.418 38.2109C156.418 38.7188 156.503 39.1224 156.672 39.4219C156.854 39.7214 157.128 39.9753 157.492 40.1836C157.688 40.3008 157.993 40.3659 158.41 40.3789C158.84 40.3919 159.276 40.3984 159.719 40.3984V41.6484ZM152.902 31.3359C151.796 31.6615 150.826 31.9805 149.992 32.293C149.159 32.6055 148.384 32.9961 147.668 33.4648C147.017 33.9076 146.503 34.4349 146.125 35.0469C145.747 35.6458 145.559 36.362 145.559 37.1953C145.559 38.276 145.839 39.0703 146.398 39.5781C146.971 40.0859 147.694 40.3398 148.566 40.3398C149.491 40.3398 150.305 40.1185 151.008 39.6758C151.711 39.2201 152.303 38.6862 152.785 38.0742L152.902 31.3359ZM170.539 42.5078C167.753 42.5078 165.572 41.5833 163.996 39.7344C162.421 37.8854 161.633 35.4049 161.633 32.293C161.633 30.9388 161.841 29.6758 162.258 28.5039C162.688 27.319 163.306 26.2448 164.113 25.2812C164.882 24.3568 165.845 23.6146 167.004 23.0547C168.163 22.4818 169.426 22.1953 170.793 22.1953C172.681 22.1953 174.217 22.651 175.402 23.5625C176.587 24.4609 177.18 25.6914 177.18 27.2539C177.18 27.9049 177.023 28.4844 176.711 28.9922C176.398 29.487 175.884 29.7344 175.168 29.7344C174.4 29.7344 173.801 29.5391 173.371 29.1484C172.954 28.7578 172.746 28.3216 172.746 27.8398C172.746 27.2539 172.824 26.6549 172.98 26.043C173.137 25.418 173.228 24.9622 173.254 24.6758C173.02 24.2721 172.668 24.0052 172.199 23.875C171.743 23.7318 171.249 23.6602 170.715 23.6602C170.09 23.6602 169.491 23.7969 168.918 24.0703C168.358 24.3307 167.811 24.819 167.277 25.5352C166.796 26.1862 166.405 27.0651 166.105 28.1719C165.806 29.2786 165.656 30.6003 165.656 32.1367C165.656 34.5586 166.19 36.5378 167.258 38.0742C168.339 39.5977 169.751 40.3594 171.496 40.3594C172.759 40.3594 173.814 40.0534 174.66 39.4414C175.52 38.8294 176.314 37.9115 177.043 36.6875L178.293 37.5078C177.434 39.0443 176.301 40.2617 174.895 41.1602C173.488 42.0586 172.036 42.5078 170.539 42.5078ZM196.906 37.4688C196.099 39.0052 195.018 40.2292 193.664 41.1406C192.31 42.0521 190.754 42.5078 188.996 42.5078C187.447 42.5078 186.086 42.2344 184.914 41.6875C183.755 41.1406 182.798 40.3984 182.043 39.4609C181.288 38.5234 180.721 37.4297 180.344 36.1797C179.979 34.9297 179.797 33.6081 179.797 32.2148C179.797 30.9648 179.992 29.7409 180.383 28.543C180.786 27.332 181.372 26.2448 182.141 25.2812C182.883 24.3568 183.801 23.6146 184.895 23.0547C186.001 22.4818 187.238 22.1953 188.605 22.1953C190.012 22.1953 191.216 22.4167 192.219 22.8594C193.221 23.3021 194.035 23.9076 194.66 24.6758C195.259 25.4049 195.702 26.2643 195.988 27.2539C196.288 28.2435 196.438 29.3177 196.438 30.4766V31.7656H183.684C183.684 33.0286 183.801 34.1745 184.035 35.2031C184.283 36.2318 184.667 37.1367 185.188 37.918C185.695 38.6732 186.359 39.2721 187.18 39.7148C188 40.1445 188.977 40.3594 190.109 40.3594C191.268 40.3594 192.264 40.0924 193.098 39.5586C193.944 39.0117 194.758 38.0352 195.539 36.6289L196.906 37.4688ZM192.59 30.125C192.59 29.3958 192.525 28.6146 192.395 27.7812C192.277 26.9479 192.082 26.2513 191.809 25.6914C191.509 25.0924 191.099 24.6042 190.578 24.2266C190.057 23.849 189.387 23.6602 188.566 23.6602C187.199 23.6602 186.06 24.2331 185.148 25.3789C184.25 26.5117 183.762 28.0938 183.684 30.125H192.59Z" fill="#03693E"/>
<path d="M67.7585 57V48.2727H69.5739V51.554H69.6293C69.7088 51.3778 69.8239 51.1989 69.9744 51.017C70.1278 50.8324 70.3267 50.679 70.571 50.5568C70.8182 50.4318 71.125 50.3693 71.4915 50.3693C71.9688 50.3693 72.4091 50.4943 72.8125 50.7443C73.2159 50.9915 73.5384 51.3651 73.7798 51.8651C74.0213 52.3622 74.142 52.9858 74.142 53.7358C74.142 54.4659 74.0241 55.0824 73.7884 55.5852C73.5554 56.0852 73.2372 56.4645 72.8338 56.723C72.4332 56.9787 71.9844 57.1065 71.4872 57.1065C71.1349 57.1065 70.8352 57.0483 70.5881 56.9318C70.3438 56.8153 70.1435 56.669 69.9872 56.4929C69.831 56.3139 69.7116 56.1335 69.6293 55.9517H69.5483V57H67.7585ZM69.5355 53.7273C69.5355 54.1165 69.5895 54.456 69.6974 54.7457C69.8054 55.0355 69.9616 55.2614 70.1662 55.4233C70.3707 55.5824 70.6193 55.6619 70.9119 55.6619C71.2074 55.6619 71.4574 55.581 71.6619 55.419C71.8665 55.2543 72.0213 55.027 72.1264 54.7372C72.2344 54.4446 72.2884 54.108 72.2884 53.7273C72.2884 53.3494 72.2358 53.017 72.1307 52.7301C72.0256 52.4432 71.8707 52.2187 71.6662 52.0568C71.4616 51.8949 71.2102 51.8139 70.9119 51.8139C70.6165 51.8139 70.3665 51.892 70.1619 52.0483C69.9602 52.2045 69.8054 52.4261 69.6974 52.7131C69.5895 53 69.5355 53.3381 69.5355 53.7273ZM79.5508 54.2131V50.4545H81.3661V57H79.6232V55.8111H79.555C79.4073 56.1946 79.1616 56.5028 78.8178 56.7358C78.4769 56.9687 78.0607 57.0852 77.5692 57.0852C77.1317 57.0852 76.7468 56.9858 76.4144 56.7869C76.082 56.5881 75.8221 56.3054 75.6346 55.9389C75.4499 55.5724 75.3562 55.1335 75.3533 54.6222V50.4545H77.1687V54.2983C77.1715 54.6847 77.2752 54.9901 77.4798 55.2145C77.6843 55.4389 77.9585 55.5511 78.3022 55.5511C78.521 55.5511 78.7255 55.5014 78.9158 55.402C79.1062 55.2997 79.2596 55.1491 79.3761 54.9503C79.4954 54.7514 79.5536 54.5057 79.5508 54.2131ZM82.8182 57V50.4545H84.6335V57H82.8182ZM83.7301 49.6108C83.4602 49.6108 83.2287 49.5213 83.0355 49.3423C82.8452 49.1605 82.75 48.9432 82.75 48.6903C82.75 48.4403 82.8452 48.2259 83.0355 48.0469C83.2287 47.8651 83.4602 47.7741 83.7301 47.7741C84 47.7741 84.2301 47.8651 84.4205 48.0469C84.6136 48.2259 84.7102 48.4403 84.7102 48.6903C84.7102 48.9432 84.6136 49.1605 84.4205 49.3423C84.2301 49.5213 84 49.6108 83.7301 49.6108ZM87.9031 48.2727V57H86.0877V48.2727H87.9031ZM91.7692 57.1065C91.272 57.1065 90.8217 56.9787 90.4183 56.723C90.0178 56.4645 89.6996 56.0852 89.4638 55.5852C89.2308 55.0824 89.1143 54.4659 89.1143 53.7358C89.1143 52.9858 89.2351 52.3622 89.4766 51.8651C89.718 51.3651 90.0391 50.9915 90.4396 50.7443C90.843 50.4943 91.2848 50.3693 91.7649 50.3693C92.1314 50.3693 92.4368 50.4318 92.6811 50.5568C92.9283 50.679 93.1271 50.8324 93.2777 51.017C93.4311 51.1989 93.5476 51.3778 93.6271 51.554H93.6825V48.2727H95.4936V57H93.7038V55.9517H93.6271C93.5419 56.1335 93.4212 56.3139 93.2649 56.4929C93.1115 56.669 92.9112 56.8153 92.6641 56.9318C92.4197 57.0483 92.1214 57.1065 91.7692 57.1065ZM92.3445 55.6619C92.6371 55.6619 92.8842 55.5824 93.0859 55.4233C93.2905 55.2614 93.4467 55.0355 93.5547 54.7457C93.6655 54.456 93.7209 54.1165 93.7209 53.7273C93.7209 53.3381 93.6669 53 93.5589 52.7131C93.451 52.4261 93.2947 52.2045 93.0902 52.0483C92.8857 51.892 92.6371 51.8139 92.3445 51.8139C92.0462 51.8139 91.7947 51.8949 91.5902 52.0568C91.3857 52.2187 91.2308 52.4432 91.1257 52.7301C91.0206 53.017 90.968 53.3494 90.968 53.7273C90.968 54.108 91.0206 54.4446 91.1257 54.7372C91.2337 55.027 91.3885 55.2543 91.5902 55.419C91.7947 55.581 92.0462 55.6619 92.3445 55.6619ZM105.21 52.321L103.548 52.4233C103.519 52.2812 103.458 52.1534 103.364 52.0398C103.271 51.9233 103.147 51.831 102.994 51.7628C102.843 51.6918 102.663 51.6562 102.452 51.6562C102.171 51.6562 101.934 51.7159 101.741 51.8352C101.548 51.9517 101.451 52.108 101.451 52.304C101.451 52.4602 101.513 52.5923 101.638 52.7003C101.763 52.8082 101.978 52.8949 102.282 52.9602L103.467 53.1989C104.103 53.3295 104.577 53.5398 104.89 53.8295C105.202 54.1193 105.359 54.5 105.359 54.9716C105.359 55.4006 105.232 55.777 104.979 56.1009C104.729 56.4247 104.386 56.6776 103.948 56.8594C103.513 57.0384 103.012 57.1278 102.444 57.1278C101.577 57.1278 100.887 56.9474 100.373 56.5866C99.8615 56.223 99.5618 55.7287 99.4737 55.1037L101.259 55.0099C101.313 55.2741 101.444 55.4759 101.651 55.6151C101.859 55.7514 102.124 55.8196 102.448 55.8196C102.766 55.8196 103.022 55.7585 103.215 55.6364C103.411 55.5114 103.511 55.3509 103.513 55.1548C103.511 54.9901 103.441 54.8551 103.305 54.75C103.168 54.642 102.958 54.5597 102.674 54.5028L101.54 54.277C100.901 54.1491 100.425 53.9276 100.113 53.6122C99.8033 53.2969 99.6484 52.8949 99.6484 52.4062C99.6484 51.9858 99.7621 51.6236 99.9893 51.3196C100.219 51.0156 100.542 50.7812 100.957 50.6165C101.374 50.4517 101.863 50.3693 102.423 50.3693C103.249 50.3693 103.9 50.544 104.374 50.8935C104.852 51.2429 105.13 51.7187 105.21 52.321ZM110.699 54.2131V50.4545H112.515V57H110.772V55.8111H110.703C110.556 56.1946 110.31 56.5028 109.966 56.7358C109.625 56.9687 109.209 57.0852 108.718 57.0852C108.28 57.0852 107.895 56.9858 107.563 56.7869C107.23 56.5881 106.971 56.3054 106.783 55.9389C106.598 55.5724 106.505 55.1335 106.502 54.6222V50.4545H108.317V54.2983C108.32 54.6847 108.424 54.9901 108.628 55.2145C108.833 55.4389 109.107 55.5511 109.451 55.5511C109.669 55.5511 109.874 55.5014 110.064 55.402C110.255 55.2997 110.408 55.1491 110.525 54.9503C110.644 54.7514 110.702 54.5057 110.699 54.2131ZM119.413 52.321L117.751 52.4233C117.722 52.2812 117.661 52.1534 117.567 52.0398C117.474 51.9233 117.35 51.831 117.197 51.7628C117.046 51.6918 116.866 51.6562 116.656 51.6562C116.374 51.6562 116.137 51.7159 115.944 51.8352C115.751 51.9517 115.654 52.108 115.654 52.304C115.654 52.4602 115.717 52.5923 115.842 52.7003C115.967 52.8082 116.181 52.8949 116.485 52.9602L117.67 53.1989C118.306 53.3295 118.781 53.5398 119.093 53.8295C119.406 54.1193 119.562 54.5 119.562 54.9716C119.562 55.4006 119.435 55.777 119.183 56.1009C118.933 56.4247 118.589 56.6776 118.151 56.8594C117.717 57.0384 117.215 57.1278 116.647 57.1278C115.781 57.1278 115.09 56.9474 114.576 56.5866C114.065 56.223 113.765 55.7287 113.677 55.1037L115.462 55.0099C115.516 55.2741 115.647 55.4759 115.854 55.6151C116.062 55.7514 116.327 55.8196 116.651 55.8196C116.969 55.8196 117.225 55.7585 117.418 55.6364C117.614 55.5114 117.714 55.3509 117.717 55.1548C117.714 54.9901 117.644 54.8551 117.508 54.75C117.371 54.642 117.161 54.5597 116.877 54.5028L115.744 54.277C115.104 54.1491 114.629 53.9276 114.316 53.6122C114.006 53.2969 113.852 52.8949 113.852 52.4062C113.852 51.9858 113.965 51.6236 114.192 51.3196C114.423 51.0156 114.745 50.7812 115.16 50.6165C115.577 50.4517 116.066 50.3693 116.626 50.3693C117.452 50.3693 118.103 50.544 118.577 50.8935C119.055 51.2429 119.333 51.7187 119.413 52.321ZM124.186 50.4545V51.8182H120.245V50.4545H124.186ZM121.14 48.8864H122.955V54.9886C122.955 55.1562 122.98 55.2869 123.032 55.3807C123.083 55.4716 123.154 55.5355 123.245 55.5724C123.338 55.6094 123.446 55.6278 123.569 55.6278C123.654 55.6278 123.739 55.6207 123.824 55.6065C123.909 55.5895 123.975 55.5767 124.02 55.5682L124.306 56.919C124.215 56.9474 124.087 56.9801 123.922 57.017C123.757 57.0568 123.557 57.081 123.321 57.0895C122.884 57.1065 122.5 57.0483 122.171 56.9148C121.844 56.7812 121.59 56.5739 121.408 56.2926C121.226 56.0114 121.137 55.6562 121.14 55.2273V48.8864ZM127.235 57.1236C126.818 57.1236 126.446 57.0511 126.119 56.9062C125.792 56.7585 125.534 56.5412 125.343 56.2543C125.156 55.9645 125.062 55.6037 125.062 55.1719C125.062 54.8082 125.129 54.5028 125.262 54.2557C125.396 54.0085 125.578 53.8097 125.808 53.6591C126.038 53.5085 126.299 53.3949 126.592 53.3182C126.887 53.2415 127.197 53.1875 127.521 53.1562C127.902 53.1165 128.208 53.0795 128.441 53.0455C128.674 53.0085 128.843 52.9545 128.949 52.8835C129.054 52.8125 129.106 52.7074 129.106 52.5682V52.5426C129.106 52.2727 129.021 52.0639 128.85 51.9162C128.683 51.7685 128.444 51.6946 128.135 51.6946C127.808 51.6946 127.548 51.767 127.355 51.9119C127.162 52.054 127.034 52.233 126.971 52.4489L125.292 52.3125C125.377 51.9148 125.545 51.571 125.795 51.2812C126.045 50.9886 126.368 50.7642 126.762 50.608C127.16 50.4489 127.62 50.3693 128.143 50.3693C128.507 50.3693 128.855 50.4119 129.187 50.4972C129.522 50.5824 129.819 50.7145 130.078 50.8935C130.339 51.0724 130.545 51.3026 130.696 51.5838C130.846 51.8622 130.922 52.196 130.922 52.5852V57H129.2V56.0923H129.149C129.044 56.2969 128.903 56.4773 128.727 56.6335C128.551 56.7869 128.339 56.9077 128.092 56.9957C127.845 57.081 127.559 57.1236 127.235 57.1236ZM127.755 55.8707C128.022 55.8707 128.258 55.8182 128.463 55.7131C128.667 55.6051 128.828 55.4602 128.944 55.2784C129.061 55.0966 129.119 54.8906 129.119 54.6605V53.9659C129.062 54.0028 128.984 54.0369 128.885 54.0682C128.788 54.0966 128.679 54.1236 128.556 54.1491C128.434 54.1719 128.312 54.1932 128.19 54.2131C128.068 54.2301 127.957 54.2457 127.858 54.2599C127.645 54.2912 127.458 54.3409 127.299 54.4091C127.14 54.4773 127.017 54.5696 126.929 54.6861C126.841 54.7997 126.797 54.9418 126.797 55.1122C126.797 55.3594 126.886 55.5483 127.065 55.679C127.247 55.8068 127.477 55.8707 127.755 55.8707ZM132.33 57V50.4545H134.145V57H132.33ZM133.242 49.6108C132.972 49.6108 132.74 49.5213 132.547 49.3423C132.357 49.1605 132.262 48.9432 132.262 48.6903C132.262 48.4403 132.357 48.2259 132.547 48.0469C132.74 47.8651 132.972 47.7741 133.242 47.7741C133.512 47.7741 133.742 47.8651 133.932 48.0469C134.125 48.2259 134.222 48.4403 134.222 48.6903C134.222 48.9432 134.125 49.1605 133.932 49.3423C133.742 49.5213 133.512 49.6108 133.242 49.6108ZM137.415 53.2159V57H135.599V50.4545H137.33V51.6094H137.406C137.551 51.2287 137.794 50.9276 138.135 50.706C138.476 50.4815 138.889 50.3693 139.375 50.3693C139.83 50.3693 140.226 50.4688 140.564 50.6676C140.902 50.8665 141.165 51.1506 141.352 51.5199C141.54 51.8864 141.634 52.3239 141.634 52.8324V57H139.818V53.1562C139.821 52.7557 139.719 52.4432 139.511 52.2188C139.304 51.9915 139.018 51.8778 138.655 51.8778C138.411 51.8778 138.195 51.9304 138.007 52.0355C137.822 52.1406 137.678 52.294 137.572 52.4957C137.47 52.6946 137.418 52.9347 137.415 53.2159ZM144.931 57.1236C144.513 57.1236 144.141 57.0511 143.814 56.9062C143.488 56.7585 143.229 56.5412 143.039 56.2543C142.851 55.9645 142.757 55.6037 142.757 55.1719C142.757 54.8082 142.824 54.5028 142.958 54.2557C143.091 54.0085 143.273 53.8097 143.503 53.6591C143.733 53.5085 143.995 53.3949 144.287 53.3182C144.583 53.2415 144.892 53.1875 145.216 53.1562C145.597 53.1165 145.904 53.0795 146.137 53.0455C146.37 53.0085 146.539 52.9545 146.644 52.8835C146.749 52.8125 146.801 52.7074 146.801 52.5682V52.5426C146.801 52.2727 146.716 52.0639 146.546 51.9162C146.378 51.7685 146.14 51.6946 145.83 51.6946C145.503 51.6946 145.243 51.767 145.05 51.9119C144.857 52.054 144.729 52.233 144.667 52.4489L142.988 52.3125C143.073 51.9148 143.24 51.571 143.49 51.2812C143.74 50.9886 144.063 50.7642 144.458 50.608C144.855 50.4489 145.316 50.3693 145.838 50.3693C146.202 50.3693 146.55 50.4119 146.882 50.4972C147.218 50.5824 147.515 50.7145 147.773 50.8935C148.034 51.0724 148.24 51.3026 148.391 51.5838C148.542 51.8622 148.617 52.196 148.617 52.5852V57H146.895V56.0923H146.844C146.739 56.2969 146.598 56.4773 146.422 56.6335C146.246 56.7869 146.034 56.9077 145.787 56.9957C145.54 57.081 145.255 57.1236 144.931 57.1236ZM145.451 55.8707C145.718 55.8707 145.953 55.8182 146.158 55.7131C146.363 55.6051 146.523 55.4602 146.64 55.2784C146.756 55.0966 146.814 54.8906 146.814 54.6605V53.9659C146.757 54.0028 146.679 54.0369 146.58 54.0682C146.483 54.0966 146.374 54.1236 146.252 54.1491C146.13 54.1719 146.007 54.1932 145.885 54.2131C145.763 54.2301 145.652 54.2457 145.553 54.2599C145.34 54.2912 145.154 54.3409 144.995 54.4091C144.836 54.4773 144.712 54.5696 144.624 54.6861C144.536 54.7997 144.492 54.9418 144.492 55.1122C144.492 55.3594 144.581 55.5483 144.76 55.679C144.942 55.8068 145.172 55.8707 145.451 55.8707ZM150.059 57V48.2727H151.875V51.554H151.93C152.01 51.3778 152.125 51.1989 152.275 51.017C152.429 50.8324 152.627 50.679 152.872 50.5568C153.119 50.4318 153.426 50.3693 153.792 50.3693C154.27 50.3693 154.71 50.4943 155.113 50.7443C155.517 50.9915 155.839 51.3651 156.081 51.8651C156.322 52.3622 156.443 52.9858 156.443 53.7358C156.443 54.4659 156.325 55.0824 156.089 55.5852C155.856 56.0852 155.538 56.4645 155.135 56.723C154.734 56.9787 154.285 57.1065 153.788 57.1065C153.436 57.1065 153.136 57.0483 152.889 56.9318C152.645 56.8153 152.444 56.669 152.288 56.4929C152.132 56.3139 152.012 56.1335 151.93 55.9517H151.849V57H150.059ZM151.836 53.7273C151.836 54.1165 151.89 54.456 151.998 54.7457C152.106 55.0355 152.262 55.2614 152.467 55.4233C152.672 55.5824 152.92 55.6619 153.213 55.6619C153.508 55.6619 153.758 55.581 153.963 55.419C154.167 55.2543 154.322 55.027 154.427 54.7372C154.535 54.4446 154.589 54.108 154.589 53.7273C154.589 53.3494 154.537 53.017 154.431 52.7301C154.326 52.4432 154.172 52.2187 153.967 52.0568C153.762 51.8949 153.511 51.8139 153.213 51.8139C152.917 51.8139 152.667 51.892 152.463 52.0483C152.261 52.2045 152.106 52.4261 151.998 52.7131C151.89 53 151.836 53.3381 151.836 53.7273ZM159.469 48.2727V57H157.654V48.2727H159.469ZM162.044 59.4545C161.814 59.4545 161.598 59.4361 161.397 59.3991C161.198 59.3651 161.033 59.321 160.902 59.267L161.311 57.9119C161.525 57.9773 161.716 58.0128 161.887 58.0185C162.06 58.0241 162.209 57.9844 162.334 57.8991C162.462 57.8139 162.566 57.669 162.645 57.4645L162.752 57.1875L160.404 50.4545H162.313L163.668 55.2614H163.736L165.104 50.4545H167.026L164.482 57.7074C164.36 58.0597 164.194 58.3665 163.983 58.6278C163.776 58.892 163.513 59.0952 163.195 59.2372C162.877 59.3821 162.493 59.4545 162.044 59.4545ZM168.606 57.1108C168.325 57.1108 168.083 57.0114 167.881 56.8125C167.683 56.6108 167.583 56.3693 167.583 56.0881C167.583 55.8097 167.683 55.571 167.881 55.3722C168.083 55.1733 168.325 55.0739 168.606 55.0739C168.879 55.0739 169.117 55.1733 169.322 55.3722C169.526 55.571 169.629 55.8097 169.629 56.0881C169.629 56.2756 169.58 56.4474 169.484 56.6037C169.39 56.7571 169.266 56.8807 169.113 56.9744C168.96 57.0653 168.79 57.1108 168.606 57.1108ZM173.52 57V48.2727H175.336V51.554H175.391C175.471 51.3778 175.586 51.1989 175.736 51.017C175.89 50.8324 176.088 50.679 176.333 50.5568C176.58 50.4318 176.887 50.3693 177.253 50.3693C177.73 50.3693 178.171 50.4943 178.574 50.7443C178.978 50.9915 179.3 51.3651 179.542 51.8651C179.783 52.3622 179.904 52.9858 179.904 53.7358C179.904 54.4659 179.786 55.0824 179.55 55.5852C179.317 56.0852 178.999 56.4645 178.596 56.723C178.195 56.9787 177.746 57.1065 177.249 57.1065C176.897 57.1065 176.597 57.0483 176.35 56.9318C176.105 56.8153 175.905 56.669 175.749 56.4929C175.593 56.3139 175.473 56.1335 175.391 55.9517H175.31V57H173.52ZM175.297 53.7273C175.297 54.1165 175.351 54.456 175.459 54.7457C175.567 55.0355 175.723 55.2614 175.928 55.4233C176.132 55.5824 176.381 55.6619 176.674 55.6619C176.969 55.6619 177.219 55.581 177.424 55.419C177.628 55.2543 177.783 55.027 177.888 54.7372C177.996 54.4446 178.05 54.108 178.05 53.7273C178.05 53.3494 177.998 53.017 177.892 52.7301C177.787 52.4432 177.632 52.2187 177.428 52.0568C177.223 51.8949 176.972 51.8139 176.674 51.8139C176.378 51.8139 176.128 51.892 175.924 52.0483C175.722 52.2045 175.567 52.4261 175.459 52.7131C175.351 53 175.297 53.3381 175.297 53.7273ZM185.312 54.2131V50.4545H187.128V57H185.385V55.8111H185.317C185.169 56.1946 184.923 56.5028 184.58 56.7358C184.239 56.9687 183.822 57.0852 183.331 57.0852C182.893 57.0852 182.509 56.9858 182.176 56.7869C181.844 56.5881 181.584 56.3054 181.396 55.9389C181.212 55.5724 181.118 55.1335 181.115 54.6222V50.4545H182.93V54.2983C182.933 54.6847 183.037 54.9901 183.241 55.2145C183.446 55.4389 183.72 55.5511 184.064 55.5511C184.283 55.5511 184.487 55.5014 184.678 55.402C184.868 55.2997 185.021 55.1491 185.138 54.9503C185.257 54.7514 185.315 54.5057 185.312 54.2131ZM188.58 57V50.4545H190.395V57H188.58ZM189.492 49.6108C189.222 49.6108 188.99 49.5213 188.797 49.3423C188.607 49.1605 188.512 48.9432 188.512 48.6903C188.512 48.4403 188.607 48.2259 188.797 48.0469C188.99 47.8651 189.222 47.7741 189.492 47.7741C189.762 47.7741 189.992 47.8651 190.182 48.0469C190.375 48.2259 190.472 48.4403 190.472 48.6903C190.472 48.9432 190.375 49.1605 190.182 49.3423C189.992 49.5213 189.762 49.6108 189.492 49.6108ZM193.665 48.2727V57H191.849V48.2727H193.665ZM197.531 57.1065C197.034 57.1065 196.583 56.9787 196.18 56.723C195.779 56.4645 195.461 56.0852 195.225 55.5852C194.993 55.0824 194.876 54.4659 194.876 53.7358C194.876 52.9858 194.997 52.3622 195.238 51.8651C195.48 51.3651 195.801 50.9915 196.201 50.7443C196.605 50.4943 197.047 50.3693 197.527 50.3693C197.893 50.3693 198.199 50.4318 198.443 50.5568C198.69 50.679 198.889 50.8324 199.039 51.017C199.193 51.1989 199.309 51.3778 199.389 51.554H199.444V48.2727H201.255V57H199.466V55.9517H199.389C199.304 56.1335 199.183 56.3139 199.027 56.4929C198.873 56.669 198.673 56.8153 198.426 56.9318C198.181 57.0483 197.883 57.1065 197.531 57.1065ZM198.106 55.6619C198.399 55.6619 198.646 55.5824 198.848 55.4233C199.052 55.2614 199.208 55.0355 199.316 54.7457C199.427 54.456 199.483 54.1165 199.483 53.7273C199.483 53.3381 199.429 53 199.321 52.7131C199.213 52.4261 199.056 52.2045 198.852 52.0483C198.647 51.892 198.399 51.8139 198.106 51.8139C197.808 51.8139 197.556 51.8949 197.352 52.0568C197.147 52.2187 196.993 52.4432 196.887 52.7301C196.782 53.017 196.73 53.3494 196.73 53.7273C196.73 54.108 196.782 54.4446 196.887 54.7372C196.995 55.027 197.15 55.2543 197.352 55.419C197.556 55.581 197.808 55.6619 198.106 55.6619ZM205.525 59.4545V50.4545H207.315V51.554H207.396C207.475 51.3778 207.591 51.1989 207.741 51.017C207.895 50.8324 208.093 50.679 208.338 50.5568C208.585 50.4318 208.892 50.3693 209.258 50.3693C209.735 50.3693 210.176 50.4943 210.579 50.7443C210.983 50.9915 211.305 51.3651 211.547 51.8651C211.788 52.3622 211.909 52.9858 211.909 53.7358C211.909 54.4659 211.791 55.0824 211.555 55.5852C211.322 56.0852 211.004 56.4645 210.6 56.723C210.2 56.9787 209.751 57.1065 209.254 57.1065C208.902 57.1065 208.602 57.0483 208.355 56.9318C208.11 56.8153 207.91 56.669 207.754 56.4929C207.598 56.3139 207.478 56.1335 207.396 55.9517H207.341V59.4545H205.525ZM207.302 53.7273C207.302 54.1165 207.356 54.456 207.464 54.7457C207.572 55.0355 207.728 55.2614 207.933 55.4233C208.137 55.5824 208.386 55.6619 208.679 55.6619C208.974 55.6619 209.224 55.581 209.429 55.419C209.633 55.2543 209.788 55.027 209.893 54.7372C210.001 54.4446 210.055 54.108 210.055 53.7273C210.055 53.3494 210.002 53.017 209.897 52.7301C209.792 52.4432 209.637 52.2187 209.433 52.0568C209.228 51.8949 208.977 51.8139 208.679 51.8139C208.383 51.8139 208.133 51.892 207.929 52.0483C207.727 52.2045 207.572 52.4261 207.464 52.7131C207.356 53 207.302 53.3381 207.302 53.7273ZM213.119 57V50.4545H214.879V51.5966H214.947C215.066 51.1903 215.267 50.8835 215.548 50.6761C215.829 50.4659 216.153 50.3608 216.52 50.3608C216.61 50.3608 216.708 50.3665 216.814 50.3778C216.919 50.3892 217.011 50.4048 217.091 50.4247V52.0355C217.005 52.0099 216.887 51.9872 216.737 51.9673C216.586 51.9474 216.449 51.9375 216.324 51.9375C216.056 51.9375 215.818 51.9957 215.608 52.1122C215.4 52.2259 215.235 52.3849 215.113 52.5895C214.994 52.794 214.934 53.0298 214.934 53.2969V57H213.119ZM220.682 57.1278C220.02 57.1278 219.447 56.9872 218.964 56.706C218.484 56.4219 218.114 56.027 217.852 55.5213C217.591 55.0128 217.46 54.4233 217.46 53.7528C217.46 53.0767 217.591 52.4858 217.852 51.9801C218.114 51.4716 218.484 51.0767 218.964 50.7955C219.447 50.5114 220.02 50.3693 220.682 50.3693C221.344 50.3693 221.915 50.5114 222.395 50.7955C222.878 51.0767 223.25 51.4716 223.511 51.9801C223.773 52.4858 223.903 53.0767 223.903 53.7528C223.903 54.4233 223.773 55.0128 223.511 55.5213C223.25 56.027 222.878 56.4219 222.395 56.706C221.915 56.9872 221.344 57.1278 220.682 57.1278ZM220.69 55.7216C220.991 55.7216 221.243 55.6364 221.445 55.4659C221.646 55.2926 221.798 55.0568 221.901 54.7585C222.006 54.4602 222.058 54.1207 222.058 53.7401C222.058 53.3594 222.006 53.0199 221.901 52.7216C221.798 52.4233 221.646 52.1875 221.445 52.0142C221.243 51.8409 220.991 51.7543 220.69 51.7543C220.386 51.7543 220.131 51.8409 219.923 52.0142C219.719 52.1875 219.564 52.4233 219.459 52.7216C219.357 53.0199 219.305 53.3594 219.305 53.7401C219.305 54.1207 219.357 54.4602 219.459 54.7585C219.564 55.0568 219.719 55.2926 219.923 55.4659C220.131 55.6364 220.386 55.7216 220.69 55.7216ZM228.604 50.4545V51.8182H224.564V50.4545H228.604ZM225.489 57V49.9815C225.489 49.5071 225.581 49.1136 225.766 48.8011C225.953 48.4886 226.209 48.2543 226.533 48.098C226.857 47.9418 227.224 47.8636 227.636 47.8636C227.915 47.8636 228.169 47.8849 228.399 47.9276C228.632 47.9702 228.805 48.0085 228.919 48.0426L228.595 49.4062C228.524 49.3835 228.436 49.3622 228.331 49.3423C228.229 49.3224 228.124 49.3125 228.016 49.3125C227.749 49.3125 227.562 49.375 227.457 49.5C227.352 49.6222 227.3 49.794 227.3 50.0156V57H225.489ZM229.713 57V50.4545H231.528V57H229.713ZM230.625 49.6108C230.355 49.6108 230.123 49.5213 229.93 49.3423C229.74 49.1605 229.645 48.9432 229.645 48.6903C229.645 48.4403 229.74 48.2259 229.93 48.0469C230.123 47.8651 230.355 47.7741 230.625 47.7741C230.895 47.7741 231.125 47.8651 231.315 48.0469C231.508 48.2259 231.605 48.4403 231.605 48.6903C231.605 48.9432 231.508 49.1605 231.315 49.3423C231.125 49.5213 230.895 49.6108 230.625 49.6108ZM236.464 50.4545V51.8182H232.522V50.4545H236.464ZM233.417 48.8864H235.232V54.9886C235.232 55.1562 235.258 55.2869 235.309 55.3807C235.36 55.4716 235.431 55.5355 235.522 55.5724C235.616 55.6094 235.724 55.6278 235.846 55.6278C235.931 55.6278 236.016 55.6207 236.102 55.6065C236.187 55.5895 236.252 55.5767 236.298 55.5682L236.583 56.919C236.492 56.9474 236.364 56.9801 236.2 57.017C236.035 57.0568 235.835 57.081 235.599 57.0895C235.161 57.1065 234.778 57.0483 234.448 56.9148C234.121 56.7812 233.867 56.5739 233.685 56.2926C233.504 56.0114 233.414 55.6562 233.417 55.2273V48.8864ZM239.513 57.1236C239.095 57.1236 238.723 57.0511 238.396 56.9062C238.07 56.7585 237.811 56.5412 237.621 56.2543C237.433 55.9645 237.339 55.6037 237.339 55.1719C237.339 54.8082 237.406 54.5028 237.54 54.2557C237.673 54.0085 237.855 53.8097 238.085 53.6591C238.315 53.5085 238.577 53.3949 238.869 53.3182C239.165 53.2415 239.474 53.1875 239.798 53.1562C240.179 53.1165 240.486 53.0795 240.719 53.0455C240.952 53.0085 241.121 52.9545 241.226 52.8835C241.331 52.8125 241.384 52.7074 241.384 52.5682V52.5426C241.384 52.2727 241.298 52.0639 241.128 51.9162C240.96 51.7685 240.722 51.6946 240.412 51.6946C240.085 51.6946 239.825 51.767 239.632 51.9119C239.439 52.054 239.311 52.233 239.249 52.4489L237.57 52.3125C237.655 51.9148 237.822 51.571 238.072 51.2812C238.322 50.9886 238.645 50.7642 239.04 50.608C239.438 50.4489 239.898 50.3693 240.42 50.3693C240.784 50.3693 241.132 50.4119 241.464 50.4972C241.8 50.5824 242.097 50.7145 242.355 50.8935C242.616 51.0724 242.822 51.3026 242.973 51.5838C243.124 51.8622 243.199 52.196 243.199 52.5852V57H241.477V56.0923H241.426C241.321 56.2969 241.18 56.4773 241.004 56.6335C240.828 56.7869 240.616 56.9077 240.369 56.9957C240.122 57.081 239.837 57.1236 239.513 57.1236ZM240.033 55.8707C240.3 55.8707 240.536 55.8182 240.74 55.7131C240.945 55.6051 241.105 55.4602 241.222 55.2784C241.338 55.0966 241.396 54.8906 241.396 54.6605V53.9659C241.339 54.0028 241.261 54.0369 241.162 54.0682C241.065 54.0966 240.956 54.1236 240.834 54.1491C240.712 54.1719 240.589 54.1932 240.467 54.2131C240.345 54.2301 240.234 54.2457 240.135 54.2599C239.922 54.2912 239.736 54.3409 239.577 54.4091C239.418 54.4773 239.294 54.5696 239.206 54.6861C239.118 54.7997 239.074 54.9418 239.074 55.1122C239.074 55.3594 239.163 55.5483 239.342 55.679C239.524 55.8068 239.754 55.8707 240.033 55.8707ZM244.641 57V48.2727H246.457V51.554H246.512C246.592 51.3778 246.707 51.1989 246.857 51.017C247.011 50.8324 247.21 50.679 247.454 50.5568C247.701 50.4318 248.008 50.3693 248.374 50.3693C248.852 50.3693 249.292 50.4943 249.695 50.7443C250.099 50.9915 250.421 51.3651 250.663 51.8651C250.904 52.3622 251.025 52.9858 251.025 53.7358C251.025 54.4659 250.907 55.0824 250.671 55.5852C250.438 56.0852 250.12 56.4645 249.717 56.723C249.316 56.9787 248.867 57.1065 248.37 57.1065C248.018 57.1065 247.718 57.0483 247.471 56.9318C247.227 56.8153 247.026 56.669 246.87 56.4929C246.714 56.3139 246.594 56.1335 246.512 55.9517H246.431V57H244.641ZM246.418 53.7273C246.418 54.1165 246.472 54.456 246.58 54.7457C246.688 55.0355 246.844 55.2614 247.049 55.4233C247.254 55.5824 247.502 55.6619 247.795 55.6619C248.09 55.6619 248.34 55.581 248.545 55.419C248.749 55.2543 248.904 55.027 249.009 54.7372C249.117 54.4446 249.171 54.108 249.171 53.7273C249.171 53.3494 249.119 53.017 249.013 52.7301C248.908 52.4432 248.754 52.2187 248.549 52.0568C248.344 51.8949 248.093 51.8139 247.795 51.8139C247.499 51.8139 247.249 51.892 247.045 52.0483C246.843 52.2045 246.688 52.4261 246.58 52.7131C246.472 53 246.418 53.3381 246.418 53.7273ZM254.051 48.2727V57H252.236V48.2727H254.051ZM256.626 59.4545C256.396 59.4545 256.18 59.4361 255.979 59.3991C255.78 59.3651 255.615 59.321 255.484 59.267L255.893 57.9119C256.107 57.9773 256.298 58.0128 256.469 58.0185C256.642 58.0241 256.791 57.9844 256.916 57.8991C257.044 57.8139 257.148 57.669 257.227 57.4645L257.334 57.1875L254.986 50.4545H256.895L258.25 55.2614H258.318L259.686 50.4545H261.608L259.064 57.7074C258.942 58.0597 258.776 58.3665 258.565 58.6278C258.358 58.892 258.095 59.0952 257.777 59.2372C257.459 59.3821 257.075 59.4545 256.626 59.4545ZM263.188 57.1108C262.907 57.1108 262.665 57.0114 262.463 56.8125C262.265 56.6108 262.165 56.3693 262.165 56.0881C262.165 55.8097 262.265 55.571 262.463 55.3722C262.665 55.1733 262.907 55.0739 263.188 55.0739C263.461 55.0739 263.699 55.1733 263.904 55.3722C264.108 55.571 264.211 55.8097 264.211 56.0881C264.211 56.2756 264.162 56.4474 264.066 56.6037C263.972 56.7571 263.848 56.8807 263.695 56.9744C263.542 57.0653 263.373 57.1108 263.188 57.1108Z" fill="#03693E"/>
<defs>
<filter id="filter0_f_0_1" x="0.058094" y="0.930973" width="65.6725" height="65.3521" filterUnits="userSpaceOnUse" color-interpolation-filters="sRGB">
<feFlood flood-opacity="0" result="BackgroundImageFix"/>
<feBlend mode="normal" in="SourceGraphic" in2="BackgroundImageFix" result="shape"/>
<feGaussianBlur stdDeviation="3.69446" result="effect1_foregroundBlur_0_1"/>
</filter>
<linearGradient id="paint0_linear_0_1" x1="20.7988" y1="25.4871" x2="41.1368" y2="28.8357" gradientUnits="userSpaceOnUse">
<stop stop-color="white"/>
<stop offset="1" stop-color="white" stop-opacity="0"/>
</linearGradient>
</defs>
</svg>
