<svg width="50" height="11" viewBox="0 0 50 11" fill="none" xmlns="http://www.w3.org/2000/svg">
<rect y="0.222229" width="50" height="9.77778" rx="4.88889" fill="#F70000"/>
<path d="M14.347 7.955C13.873 8.063 13.432 8.117 13.024 8.117C12.622 8.117 12.271 8.066 11.971 7.964C11.677 7.856 11.404 7.685 11.152 7.451C10.618 6.953 10.351 6.128 10.351 4.976C10.351 4.406 10.429 3.914 10.585 3.5C10.741 3.08 10.954 2.756 11.224 2.528C11.728 2.102 12.337 1.889 13.051 1.889C13.501 1.889 13.954 1.955 14.41 2.087L14.203 3.014C13.861 2.948 13.543 2.915 13.249 2.915C12.763 2.915 12.379 3.068 12.097 3.374C11.815 3.674 11.674 4.205 11.674 4.967C11.674 5.723 11.818 6.26 12.106 6.578C12.394 6.89 12.793 7.046 13.303 7.046C13.657 7.046 13.978 7.022 14.266 6.974L14.347 7.955ZM16.548 6.956H18.843V8H15.243V1.988H16.548V6.956ZM19.6709 2.852C19.8509 2.546 20.1029 2.309 20.4269 2.141C20.7569 1.967 21.1229 1.88 21.5249 1.88C21.9269 1.88 22.2689 1.94 22.5509 2.06C22.8389 2.174 23.0729 2.327 23.2529 2.519C23.4329 2.711 23.5799 2.942 23.6939 3.212C23.9039 3.716 24.0089 4.31 24.0089 4.994C24.0089 5.846 23.8379 6.56 23.4959 7.136C23.3159 7.436 23.0609 7.673 22.7309 7.847C22.4009 8.021 22.0319 8.108 21.6239 8.108C21.2219 8.108 20.8799 8.051 20.5979 7.937C20.3159 7.817 20.0849 7.661 19.9049 7.469C19.7249 7.277 19.5779 7.046 19.4639 6.776C19.2539 6.272 19.1489 5.678 19.1489 4.994C19.1489 4.148 19.3229 3.434 19.6709 2.852ZM20.6609 6.479C20.8349 6.833 21.1409 7.01 21.5789 7.01C22.0169 7.01 22.3229 6.833 22.4969 6.479C22.6709 6.119 22.7579 5.678 22.7579 5.156C22.7579 4.634 22.7279 4.232 22.6679 3.95C22.6079 3.662 22.4879 3.422 22.3079 3.23C22.1279 3.032 21.9029 2.933 21.6329 2.933C21.3689 2.933 21.1559 2.987 20.9939 3.095C20.8379 3.197 20.7179 3.347 20.6339 3.545C20.4779 3.911 20.3999 4.403 20.3999 5.021C20.3999 5.633 20.4869 6.119 20.6609 6.479ZM28.5742 6.317C28.5742 6.851 28.3882 7.286 28.0162 7.622C27.6502 7.952 27.1552 8.117 26.5312 8.117C26.2312 8.117 25.8922 8.078 25.5142 8C25.1422 7.916 24.8332 7.817 24.5872 7.703L24.9202 6.632C25.4722 6.884 25.9942 7.01 26.4862 7.01C27.0442 7.01 27.3232 6.794 27.3232 6.362C27.3232 6.152 27.2302 5.972 27.0442 5.822C26.8582 5.672 26.6062 5.525 26.2882 5.381C25.9702 5.231 25.7422 5.117 25.6042 5.039C25.4722 4.961 25.3252 4.85 25.1632 4.706C24.8572 4.436 24.7042 4.043 24.7042 3.527C24.7042 3.011 24.8842 2.606 25.2442 2.312C25.6102 2.018 26.0602 1.871 26.5942 1.871C27.1342 1.871 27.7132 1.985 28.3312 2.213L27.9712 3.194C27.4792 3.02 27.0592 2.933 26.7112 2.933C26.2132 2.933 25.9612 3.131 25.9552 3.527C25.9552 3.689 26.0092 3.812 26.1172 3.896C26.2252 3.974 26.3032 4.031 26.3512 4.067C26.3992 4.097 26.4952 4.151 26.6392 4.229C26.7892 4.301 26.9272 4.373 27.0532 4.445C27.1792 4.511 27.2932 4.577 27.3952 4.643C27.5032 4.703 27.6442 4.799 27.8182 4.931C27.9922 5.063 28.1242 5.186 28.2142 5.3C28.4542 5.6 28.5742 5.939 28.5742 6.317ZM30.6894 6.956H33.2634V8H29.3934V1.979H33.1824V3.023H30.6894V4.382H33.0384V5.39H30.6894V6.956ZM35.5146 3.158V6.839H35.9646C36.5346 6.839 36.9156 6.692 37.1076 6.398C37.3056 6.098 37.4046 5.63 37.4046 4.994C37.4046 4.358 37.3086 3.893 37.1166 3.599C36.9246 3.305 36.5406 3.158 35.9646 3.158H35.5146ZM35.9106 8H34.2186V1.997H35.9106C36.6666 1.997 37.1946 2.075 37.4946 2.231C38.2866 2.639 38.6826 3.563 38.6826 5.003C38.6826 5.651 38.5866 6.221 38.3946 6.713C38.2086 7.205 37.9116 7.553 37.5036 7.757C37.1796 7.919 36.6486 8 35.9106 8Z" fill="white"/>
</svg>
