<svg width="75" height="11" viewBox="0 0 75 11" fill="none" xmlns="http://www.w3.org/2000/svg">
<rect width="74.8" height="11" rx="2" fill="#F70000"/>
<path d="M23.24 9.12C22.3933 9.12 21.7433 8.91333 21.29 8.5C20.8433 8.08 20.62 7.46333 20.62 6.65V4.81C20.62 3.99 20.8467 3.37333 21.3 2.96C21.7533 2.54 22.4 2.33 23.24 2.33C23.8133 2.33 24.3067 2.42333 24.72 2.61C25.1333 2.79667 25.44 3.06333 25.64 3.41C25.84 3.75667 25.9067 4.16667 25.84 4.64C25.8333 4.67333 25.82 4.70667 25.8 4.74C25.7867 4.76667 25.76 4.78 25.72 4.78H24.75C24.67 4.78 24.6333 4.74 24.64 4.66C24.6533 4.25333 24.5433 3.94 24.31 3.72C24.0833 3.49333 23.7333 3.38 23.26 3.38C22.8 3.38 22.4433 3.5 22.19 3.74C21.9433 3.98 21.82 4.34333 21.82 4.83V6.62C21.82 7.10667 21.9433 7.47 22.19 7.71C22.4433 7.95 22.8 8.07 23.26 8.07C23.7467 8.07 24.1067 7.95667 24.34 7.73C24.5733 7.49667 24.6733 7.18333 24.64 6.79C24.6333 6.71 24.67 6.67 24.75 6.67H25.71C25.7833 6.67 25.8267 6.71667 25.84 6.81C25.8867 7.27667 25.8067 7.68333 25.6 8.03C25.4 8.37667 25.0967 8.64667 24.69 8.84C24.29 9.02667 23.8067 9.12 23.24 9.12ZM27.2758 9C27.2024 9 27.1658 8.96 27.1658 8.88V2.57C27.1658 2.49 27.2024 2.45 27.2758 2.45H28.2558C28.3291 2.45 28.3658 2.49 28.3658 2.57V7.94H30.9958C31.0758 7.94 31.1158 7.98 31.1158 8.06V8.88C31.1158 8.96 31.0758 9 30.9958 9H27.2758ZM34.3928 9.12C33.5128 9.12 32.8528 8.91 32.4128 8.49C31.9728 8.06333 31.7528 7.45333 31.7528 6.66V4.79C31.7528 3.99 31.9728 3.38 32.4128 2.96C32.8528 2.54 33.5128 2.33 34.3928 2.33C35.2661 2.33 35.9228 2.54 36.3628 2.96C36.8028 3.38 37.0228 3.99 37.0228 4.79V6.66C37.0228 7.45333 36.8028 8.06333 36.3628 8.49C35.9228 8.91 35.2661 9.12 34.3928 9.12ZM34.3928 8.07C34.8661 8.07 35.2228 7.94667 35.4628 7.7C35.7028 7.44667 35.8228 7.08 35.8228 6.6V4.85C35.8228 4.37 35.7028 4.00667 35.4628 3.76C35.2228 3.50667 34.8661 3.38 34.3928 3.38C33.9195 3.38 33.5595 3.50667 33.3128 3.76C33.0728 4.00667 32.9528 4.37 32.9528 4.85V6.6C32.9528 7.08 33.0728 7.44667 33.3128 7.7C33.5595 7.94667 33.9195 8.07 34.3928 8.07ZM40.3388 9.12C39.7788 9.12 39.3155 9.04333 38.9488 8.89C38.5888 8.73667 38.3288 8.51667 38.1688 8.23C38.0088 7.93667 37.9455 7.58333 37.9788 7.17C37.9922 7.05667 38.0388 7 38.1188 7H39.0588C39.1455 7 39.1855 7.05 39.1788 7.15C39.1788 7.47667 39.2788 7.71667 39.4788 7.87C39.6788 8.01667 39.9855 8.09 40.3988 8.09C40.8055 8.09 41.1055 8.02667 41.2988 7.9C41.4988 7.76667 41.5988 7.56333 41.5988 7.29C41.5988 7.16333 41.5755 7.05333 41.5288 6.96C41.4822 6.86 41.4022 6.77333 41.2888 6.7C41.1755 6.62 41.0222 6.54 40.8288 6.46L39.3788 5.84C39.0588 5.7 38.8022 5.55 38.6088 5.39C38.4155 5.22333 38.2788 5.03333 38.1988 4.82C38.1188 4.60667 38.0788 4.36333 38.0788 4.09C38.0855 3.52333 38.2755 3.09 38.6488 2.79C39.0222 2.49 39.5788 2.34 40.3188 2.34C40.8388 2.34 41.2788 2.41333 41.6388 2.56C42.0055 2.7 42.2788 2.91 42.4588 3.19C42.6388 3.46333 42.7088 3.80667 42.6688 4.22C42.6555 4.34 42.6155 4.4 42.5488 4.4H41.5988C41.5588 4.4 41.5288 4.38667 41.5088 4.36C41.4888 4.33333 41.4822 4.28667 41.4888 4.22C41.5088 3.95333 41.4122 3.74333 41.1988 3.59C40.9922 3.43 40.6955 3.35 40.3088 3.35C39.9688 3.35 39.7122 3.41 39.5388 3.53C39.3655 3.65 39.2788 3.83 39.2788 4.07C39.2788 4.19667 39.3022 4.31 39.3488 4.41C39.3955 4.50333 39.4755 4.59 39.5888 4.67C39.7088 4.75 39.8688 4.83333 40.0688 4.92L41.4988 5.53C41.8255 5.66333 42.0822 5.81333 42.2688 5.98C42.4622 6.14 42.5988 6.32667 42.6788 6.54C42.7655 6.75333 42.8055 7.00667 42.7988 7.3C42.7988 7.88 42.6022 8.33 42.2088 8.65C41.8155 8.96333 41.1922 9.12 40.3388 9.12ZM44.1215 9C44.0482 9 44.0115 8.96 44.0115 8.88V2.57C44.0115 2.49 44.0482 2.45 44.1215 2.45H47.9515C48.0248 2.45 48.0615 2.49 48.0615 2.57V3.39C48.0615 3.47 48.0248 3.51 47.9515 3.51H45.2115V5.18H47.7115C47.7848 5.18 47.8215 5.22 47.8215 5.3V6.07C47.8215 6.15 47.7848 6.19 47.7115 6.19H45.2115V7.94H47.9515C48.0248 7.94 48.0615 7.98 48.0615 8.06V8.88C48.0615 8.96 48.0248 9 47.9515 9H44.1215ZM49.5219 9C49.4485 9 49.4119 8.96 49.4119 8.88V2.57C49.4119 2.49 49.4485 2.45 49.5219 2.45H51.5419C52.5752 2.45 53.3452 2.69 53.8519 3.17C54.3585 3.65 54.6119 4.37 54.6119 5.33V5.93C54.6119 6.95 54.3585 7.71667 53.8519 8.23C53.3519 8.74333 52.5819 9 51.5419 9H49.5219ZM50.6119 7.97H51.4619C52.1352 7.97 52.6285 7.80333 52.9419 7.47C53.2552 7.13 53.4119 6.62 53.4119 5.94V5.32C53.4119 4.7 53.2552 4.24 52.9419 3.94C52.6285 3.63333 52.1352 3.48 51.4619 3.48H50.6119V7.97Z" fill="white"/>
</svg>
