<svg width="50" height="10" viewBox="0 0 50 10" fill="none" xmlns="http://www.w3.org/2000/svg">
<rect y="0.222229" width="50" height="9.77778" rx="2" fill="#D50000"/>
<path d="M15.864 7.96C15.4427 8.056 15.0507 8.104 14.688 8.104C14.3307 8.104 14.0187 8.05867 13.752 7.968C13.4907 7.872 13.248 7.72 13.024 7.512C12.5493 7.06933 12.312 6.336 12.312 5.312C12.312 4.80533 12.3813 4.368 12.52 4C12.6587 3.62667 12.848 3.33867 13.088 3.136C13.536 2.75733 14.0773 2.568 14.712 2.568C15.112 2.568 15.5147 2.62667 15.92 2.744L15.736 3.568C15.432 3.50933 15.1493 3.48 14.888 3.48C14.456 3.48 14.1147 3.616 13.864 3.888C13.6133 4.15467 13.488 4.62667 13.488 5.304C13.488 5.976 13.616 6.45333 13.872 6.736C14.128 7.01333 14.4827 7.152 14.936 7.152C15.2507 7.152 15.536 7.13067 15.792 7.088L15.864 7.96ZM17.8204 7.072H19.8604V8H16.6604V2.656H17.8204V7.072ZM20.5963 3.424C20.7563 3.152 20.9803 2.94133 21.2683 2.792C21.5616 2.63733 21.887 2.56 22.2443 2.56C22.6016 2.56 22.9056 2.61333 23.1563 2.72C23.4123 2.82133 23.6203 2.95733 23.7803 3.128C23.9403 3.29867 24.071 3.504 24.1723 3.744C24.359 4.192 24.4523 4.72 24.4523 5.328C24.4523 6.08533 24.3003 6.72 23.9963 7.232C23.8363 7.49867 23.6096 7.70933 23.3163 7.864C23.023 8.01867 22.695 8.096 22.3323 8.096C21.975 8.096 21.671 8.04533 21.4203 7.944C21.1696 7.83733 20.9643 7.69867 20.8043 7.528C20.6443 7.35733 20.5136 7.152 20.4123 6.912C20.2256 6.464 20.1323 5.936 20.1323 5.328C20.1323 4.576 20.287 3.94133 20.5963 3.424ZM21.4763 6.648C21.631 6.96267 21.903 7.12 22.2923 7.12C22.6816 7.12 22.9536 6.96267 23.1083 6.648C23.263 6.328 23.3403 5.936 23.3403 5.472C23.3403 5.008 23.3136 4.65067 23.2603 4.4C23.207 4.144 23.1003 3.93067 22.9403 3.76C22.7803 3.584 22.5803 3.496 22.3403 3.496C22.1056 3.496 21.9163 3.544 21.7723 3.64C21.6336 3.73067 21.527 3.864 21.4523 4.04C21.3136 4.36533 21.2443 4.80267 21.2443 5.352C21.2443 5.896 21.3216 6.328 21.4763 6.648ZM28.5104 6.504C28.5104 6.97867 28.345 7.36533 28.0144 7.664C27.689 7.95733 27.249 8.104 26.6944 8.104C26.4277 8.104 26.1264 8.06933 25.7904 8C25.4597 7.92533 25.185 7.83733 24.9664 7.736L25.2624 6.784C25.753 7.008 26.217 7.12 26.6544 7.12C27.1504 7.12 27.3984 6.928 27.3984 6.544C27.3984 6.35733 27.3157 6.19733 27.1504 6.064C26.985 5.93067 26.761 5.8 26.4784 5.672C26.1957 5.53867 25.993 5.43733 25.8704 5.368C25.753 5.29867 25.6224 5.2 25.4784 5.072C25.2064 4.832 25.0704 4.48267 25.0704 4.024C25.0704 3.56533 25.2304 3.20533 25.5504 2.944C25.8757 2.68267 26.2757 2.552 26.7504 2.552C27.2304 2.552 27.745 2.65333 28.2944 2.856L27.9744 3.728C27.537 3.57333 27.1637 3.496 26.8544 3.496C26.4117 3.496 26.1877 3.672 26.1824 4.024C26.1824 4.168 26.2304 4.27733 26.3264 4.352C26.4224 4.42133 26.4917 4.472 26.5344 4.504C26.577 4.53067 26.6624 4.57867 26.7904 4.648C26.9237 4.712 27.0464 4.776 27.1584 4.84C27.2704 4.89867 27.3717 4.95733 27.4624 5.016C27.5584 5.06933 27.6837 5.15467 27.8384 5.272C27.993 5.38933 28.1104 5.49867 28.1904 5.6C28.4037 5.86667 28.5104 6.168 28.5104 6.504ZM30.3906 7.072H32.6786V8H29.2386V2.648H32.6066V3.576H30.3906V4.784H32.4786V5.68H30.3906V7.072ZM34.6796 3.696V6.968H35.0796C35.5863 6.968 35.925 6.83733 36.0956 6.576C36.2716 6.30933 36.3596 5.89333 36.3596 5.328C36.3596 4.76267 36.2743 4.34933 36.1036 4.088C35.933 3.82667 35.5916 3.696 35.0796 3.696H34.6796ZM35.0316 8H33.5276V2.664H35.0316C35.7036 2.664 36.173 2.73333 36.4396 2.872C37.1436 3.23467 37.4956 4.056 37.4956 5.336C37.4956 5.912 37.4103 6.41867 37.2396 6.856C37.0743 7.29333 36.8103 7.60267 36.4476 7.784C36.1596 7.928 35.6876 8 35.0316 8Z" fill="white"/>
</svg>
