<svg width="83" height="11" viewBox="0 0 83 11" fill="none" xmlns="http://www.w3.org/2000/svg">
<rect width="74.8" height="11" rx="2" fill="#F70000"/>
<path d="M28.85 9C28.7767 9 28.74 8.96 28.74 8.88V2.57C28.74 2.49 28.7767 2.45 28.85 2.45H29.82C29.9 2.45 29.94 2.49 29.94 2.57V5.14H32.74V2.57C32.74 2.49 32.78 2.45 32.86 2.45H33.83C33.9033 2.45 33.94 2.49 33.94 2.57V8.88C33.94 8.96 33.9033 9 33.83 9H32.86C32.78 9 32.74 8.96 32.74 8.88V6.18H29.94V8.88C29.94 8.96 29.9 9 29.82 9H28.85ZM35.5297 9C35.4564 9 35.4197 8.96 35.4197 8.88V2.57C35.4197 2.49 35.4564 2.45 35.5297 2.45H36.4997C36.5797 2.45 36.6197 2.49 36.6197 2.57V8.88C36.6197 8.96 36.5797 9 36.4997 9H35.5297ZM40.3957 9.12C39.909 9.12 39.4824 9.02667 39.1157 8.84C38.749 8.64667 38.4657 8.36667 38.2657 8C38.0657 7.63333 37.9657 7.18333 37.9657 6.65V4.8C37.9657 4 38.199 3.39 38.6657 2.97C39.139 2.54333 39.7857 2.33 40.6057 2.33C41.1924 2.33 41.6857 2.42333 42.0857 2.61C42.4924 2.79667 42.789 3.05667 42.9757 3.39C43.169 3.71667 43.2357 4.09333 43.1757 4.52C43.169 4.6 43.129 4.64 43.0557 4.64L42.0857 4.63C42.0057 4.63 41.969 4.59 41.9757 4.51C41.989 4.27 41.9457 4.06667 41.8457 3.9C41.7524 3.72667 41.6057 3.59667 41.4057 3.51C41.2057 3.42333 40.949 3.38 40.6357 3.38C40.149 3.38 39.7824 3.5 39.5357 3.74C39.289 3.97333 39.1657 4.33667 39.1657 4.83V6.62C39.1657 7.12 39.2857 7.48667 39.5257 7.72C39.7724 7.95333 40.1357 8.07 40.6157 8.07C41.0824 8.07 41.439 7.96333 41.6857 7.75C41.9324 7.53 42.0557 7.21333 42.0557 6.8V6.48H40.7057C40.6257 6.48 40.5857 6.44 40.5857 6.36V5.69C40.5857 5.61667 40.6257 5.58 40.7057 5.58H43.0857C43.119 5.58 43.1457 5.59 43.1657 5.61C43.1857 5.63 43.1957 5.65667 43.1957 5.69V7.53C43.1957 7.75667 43.199 7.98667 43.2057 8.22C43.219 8.45333 43.2424 8.67 43.2757 8.87C43.289 8.91 43.2824 8.94333 43.2557 8.97C43.2357 8.99 43.209 9 43.1757 9H42.3957C42.3624 9 42.3357 8.99333 42.3157 8.98C42.2957 8.96 42.279 8.93333 42.2657 8.9C42.2524 8.82 42.239 8.72333 42.2257 8.61C42.219 8.49667 42.2124 8.38667 42.2057 8.28H42.1857C42.0724 8.45333 41.929 8.60333 41.7557 8.73C41.589 8.85667 41.3924 8.95333 41.1657 9.02C40.939 9.08667 40.6824 9.12 40.3957 9.12ZM44.7973 9C44.7239 9 44.6873 8.96 44.6873 8.88V2.57C44.6873 2.49 44.7239 2.45 44.7973 2.45H45.7673C45.8473 2.45 45.8873 2.49 45.8873 2.57V5.14H48.6873V2.57C48.6873 2.49 48.7273 2.45 48.8073 2.45H49.7773C49.8506 2.45 49.8873 2.49 49.8873 2.57V8.88C49.8873 8.96 49.8506 9 49.7773 9H48.8073C48.7273 9 48.6873 8.96 48.6873 8.88V6.18H45.8873V8.88C45.8873 8.96 45.8473 9 45.7673 9H44.7973Z" fill="white"/>
</svg>
