<svg width="50" height="11" viewBox="0 0 50 11" fill="none" xmlns="http://www.w3.org/2000/svg">
<rect y="0.222229" width="50" height="9.77778" rx="4.88889" fill="#F70000"/>
<path d="M18.834 4.364V1.988H20.121V8H18.834V5.408H16.863V8H15.576V1.988H16.863V4.364H18.834ZM22.5673 1.988V8H21.2713V1.988H22.5673ZM24.3535 2.537C24.6235 2.309 24.9085 2.144 25.2085 2.042C25.5145 1.94 25.8745 1.889 26.2885 1.889C26.7025 1.889 27.1945 1.967 27.7645 2.123L27.5755 3.059C27.1735 2.963 26.7535 2.915 26.3155 2.915C25.8775 2.915 25.5175 3.068 25.2355 3.374C24.9535 3.674 24.8125 4.199 24.8125 4.949C24.8125 6.347 25.2775 7.046 26.2075 7.046C26.3935 7.046 26.5885 7.028 26.7925 6.992V5.876H25.9465V4.931H27.9715V7.721C27.3115 7.985 26.6395 8.117 25.9555 8.117C25.2715 8.117 24.6955 7.868 24.2275 7.37C23.7595 6.866 23.5135 6.068 23.4895 4.976C23.4895 4.406 23.5675 3.914 23.7235 3.5C23.8795 3.08 24.0895 2.759 24.3535 2.537ZM32.2022 4.364V1.988H33.4892V8H32.2022V5.408H30.2312V8H28.9442V1.988H30.2312V4.364H32.2022Z" fill="white"/>
</svg>
