<svg width="50" height="10" viewBox="0 0 50 10" fill="none" xmlns="http://www.w3.org/2000/svg">
<rect y="0.222229" width="50" height="9.77778" rx="2" fill="#D50000"/>
<path d="M20.408 4.768V2.656H21.552V8H20.408V5.696H18.656V8H17.512V2.656H18.656V4.768H20.408ZM23.7265 2.656V8H22.5745V2.656H23.7265ZM25.3142 3.144C25.5542 2.94133 25.8075 2.79467 26.0742 2.704C26.3462 2.61333 26.6662 2.568 27.0342 2.568C27.4022 2.568 27.8395 2.63733 28.3462 2.776L28.1782 3.608C27.8209 3.52267 27.4475 3.48 27.0582 3.48C26.6689 3.48 26.3489 3.616 26.0982 3.888C25.8475 4.15467 25.7222 4.62133 25.7222 5.288C25.7222 6.53067 26.1355 7.152 26.9622 7.152C27.1275 7.152 27.3009 7.136 27.4822 7.104V6.112H26.7302V5.272H28.5302V7.752C27.9435 7.98667 27.3462 8.104 26.7382 8.104C26.1302 8.104 25.6182 7.88267 25.2022 7.44C24.7862 6.992 24.5675 6.28267 24.5462 5.312C24.5462 4.80533 24.6155 4.368 24.7542 4C24.8929 3.62667 25.0795 3.34133 25.3142 3.144ZM32.2908 4.768V2.656H33.4348V8H32.2908V5.696H30.5388V8H29.3948V2.656H30.5388V4.768H32.2908Z" fill="white"/>
</svg>
