<svg width="50" height="10" viewBox="0 0 50 10" fill="none" xmlns="http://www.w3.org/2000/svg">
<rect y="0.222229" width="50" height="9.77778" rx="2" fill="#1B5E20"/>
<path d="M19.672 7.072H21.712V8H18.512V2.656H19.672V7.072ZM22.4479 3.424C22.6079 3.152 22.8319 2.94133 23.1199 2.792C23.4132 2.63733 23.7385 2.56 24.0959 2.56C24.4532 2.56 24.7572 2.61333 25.0079 2.72C25.2639 2.82133 25.4719 2.95733 25.6319 3.128C25.7919 3.29867 25.9225 3.504 26.0239 3.744C26.2105 4.192 26.3039 4.72 26.3039 5.328C26.3039 6.08533 26.1519 6.72 25.8479 7.232C25.6879 7.49867 25.4612 7.70933 25.1679 7.864C24.8745 8.01867 24.5465 8.096 24.1839 8.096C23.8265 8.096 23.5225 8.04533 23.2719 7.944C23.0212 7.83733 22.8159 7.69867 22.6559 7.528C22.4959 7.35733 22.3652 7.152 22.2639 6.912C22.0772 6.464 21.9839 5.936 21.9839 5.328C21.9839 4.576 22.1385 3.94133 22.4479 3.424ZM23.3279 6.648C23.4825 6.96267 23.7545 7.12 24.1439 7.12C24.5332 7.12 24.8052 6.96267 24.9599 6.648C25.1145 6.328 25.1919 5.936 25.1919 5.472C25.1919 5.008 25.1652 4.65067 25.1119 4.4C25.0585 4.144 24.9519 3.93067 24.7919 3.76C24.6319 3.584 24.4319 3.496 24.1919 3.496C23.9572 3.496 23.7679 3.544 23.6239 3.64C23.4852 3.73067 23.3785 3.864 23.3039 4.04C23.1652 4.36533 23.0959 4.80267 23.0959 5.352C23.0959 5.896 23.1732 6.328 23.3279 6.648ZM29.3459 3.104H30.1859L31.3059 6.688L31.5939 2.656H32.6579L32.1219 8H30.9219L29.7619 4.048L28.6099 8H27.4099L26.8739 2.656H27.9299L28.2179 6.696L29.3459 3.104Z" fill="white"/>
</svg>
