<svg width="75" height="11" viewBox="0 0 75 11" fill="none" xmlns="http://www.w3.org/2000/svg">
<rect width="74.8" height="11" rx="2" fill="#1B5E20"/>
<path d="M29.85 9C29.7767 9 29.74 8.96 29.74 8.88V2.57C29.74 2.49 29.7767 2.45 29.85 2.45H30.83C30.9033 2.45 30.94 2.49 30.94 2.57V7.94H33.57C33.65 7.94 33.69 7.98 33.69 8.06V8.88C33.69 8.96 33.65 9 33.57 9H29.85ZM36.967 9.12C36.087 9.12 35.427 8.91 34.987 8.49C34.547 8.06333 34.327 7.45333 34.327 6.66V4.79C34.327 3.99 34.547 3.38 34.987 2.96C35.427 2.54 36.087 2.33 36.967 2.33C37.8404 2.33 38.497 2.54 38.937 2.96C39.377 3.38 39.597 3.99 39.597 4.79V6.66C39.597 7.45333 39.377 8.06333 38.937 8.49C38.497 8.91 37.8404 9.12 36.967 9.12ZM36.967 8.07C37.4404 8.07 37.797 7.94667 38.037 7.7C38.277 7.44667 38.397 7.08 38.397 6.6V4.85C38.397 4.37 38.277 4.00667 38.037 3.76C37.797 3.50667 37.4404 3.38 36.967 3.38C36.4937 3.38 36.1337 3.50667 35.887 3.76C35.647 4.00667 35.527 4.37 35.527 4.85V6.6C35.527 7.08 35.647 7.44667 35.887 7.7C36.1337 7.94667 36.4937 8.07 36.967 8.07ZM42.1833 9C42.1166 9 42.0733 8.96667 42.0533 8.9L40.2833 2.58C40.2566 2.49333 40.2933 2.45 40.3933 2.45H41.3633C41.4366 2.45 41.4799 2.48333 41.4933 2.55L42.4533 6.13C42.5066 6.30333 42.5499 6.48667 42.5833 6.68C42.6233 6.87333 42.6599 7.06333 42.6933 7.25C42.7333 7.43 42.7699 7.6 42.8033 7.76H42.8233C42.8899 7.52667 42.9566 7.29667 43.0233 7.07C43.0899 6.83667 43.1599 6.60333 43.2333 6.37L43.9933 3.93L43.6233 2.71C43.6099 2.67 43.6133 2.64 43.6333 2.62C43.6599 2.59333 43.6899 2.58 43.7233 2.58H44.7033C44.7699 2.58 44.8099 2.61333 44.8233 2.68L45.8233 6.39C45.8899 6.61667 45.9499 6.84667 46.0033 7.08C46.0566 7.30667 46.1099 7.53333 46.1633 7.76H46.1733C46.2066 7.6 46.2399 7.42333 46.2733 7.23C46.3133 7.03667 46.3533 6.84333 46.3933 6.65C46.4333 6.45 46.4733 6.26333 46.5133 6.09L47.4333 2.55C47.4466 2.48333 47.4899 2.45 47.5633 2.45H48.5633C48.6566 2.45 48.6899 2.49333 48.6633 2.58L46.9433 8.9C46.9233 8.96667 46.8799 9 46.8133 9H45.6133C45.5399 9 45.4933 8.96667 45.4733 8.9L44.8933 6.84C44.8266 6.60667 44.7599 6.37333 44.6933 6.14C44.6333 5.90667 44.5766 5.68 44.5233 5.46H44.5033C44.4366 5.68 44.3699 5.90333 44.3033 6.13C44.2433 6.35667 44.1766 6.58667 44.1033 6.82L43.4733 8.91C43.4599 8.94333 43.4433 8.96667 43.4233 8.98C43.4033 8.99333 43.3766 9 43.3433 9H42.1833Z" fill="white"/>
</svg>
