<svg width="50" height="10" viewBox="0 0 50 10" fill="none" xmlns="http://www.w3.org/2000/svg">
<rect y="0.222229" width="50" height="9.77778" rx="4.88889" fill="#1B5E20"/>
<path d="M17.881 6.956H20.176V8H16.576V1.988H17.881V6.956ZM21.0039 2.852C21.1839 2.546 21.4359 2.309 21.7599 2.141C22.0899 1.967 22.4559 1.88 22.8579 1.88C23.2599 1.88 23.6019 1.94 23.8839 2.06C24.1719 2.174 24.4059 2.327 24.5859 2.519C24.7659 2.711 24.9129 2.942 25.0269 3.212C25.2369 3.716 25.3419 4.31 25.3419 4.994C25.3419 5.846 25.1709 6.56 24.8289 7.136C24.6489 7.436 24.3939 7.673 24.0639 7.847C23.7339 8.021 23.3649 8.108 22.9569 8.108C22.5549 8.108 22.2129 8.051 21.9309 7.937C21.6489 7.817 21.4179 7.661 21.2379 7.469C21.0579 7.277 20.9109 7.046 20.7969 6.776C20.5869 6.272 20.4819 5.678 20.4819 4.994C20.4819 4.148 20.6559 3.434 21.0039 2.852ZM21.9939 6.479C22.1679 6.833 22.4739 7.01 22.9119 7.01C23.3499 7.01 23.6559 6.833 23.8299 6.479C24.0039 6.119 24.0909 5.678 24.0909 5.156C24.0909 4.634 24.0609 4.232 24.0009 3.95C23.9409 3.662 23.8209 3.422 23.6409 3.23C23.4609 3.032 23.2359 2.933 22.9659 2.933C22.7019 2.933 22.4889 2.987 22.3269 3.095C22.1709 3.197 22.0509 3.347 21.9669 3.545C21.8109 3.911 21.7329 4.403 21.7329 5.021C21.7329 5.633 21.8199 6.119 21.9939 6.479ZM28.7642 2.492H29.7092L30.9692 6.524L31.2932 1.988H32.4902L31.8872 8H30.5372L29.2322 3.554L27.9362 8H26.5862L25.9832 1.988H27.1712L27.4952 6.533L28.7642 2.492Z" fill="white"/>
</svg>
