<svg width="75" height="11" viewBox="0 0 75 11" fill="none" xmlns="http://www.w3.org/2000/svg">
<rect width="74.8" height="11" rx="2" fill="#F7D500"/>
<path d="M20.71 9C20.6767 9 20.65 8.99 20.63 8.97C20.61 8.94333 20.6 8.91333 20.6 8.88L20.73 2.57C20.73 2.49 20.77 2.45 20.85 2.45H22.14C22.2 2.45 22.2433 2.48 22.27 2.54L23.94 6.18L25.58 2.54C25.6133 2.48 25.66 2.45 25.72 2.45H27.01C27.0833 2.45 27.12 2.49 27.12 2.57L27.26 8.88C27.26 8.91333 27.25 8.94333 27.23 8.97C27.21 8.99 27.18 9 27.14 9H26.2C26.12 9 26.08 8.96 26.08 8.88L26 5.65C25.9933 5.38333 25.9967 5.11667 26.01 4.85C26.0233 4.57667 26.0333 4.31 26.04 4.05H26.01C25.9033 4.31 25.79 4.57333 25.67 4.84C25.5567 5.1 25.4367 5.35667 25.31 5.61L24.08 8.2C24.0533 8.25333 24.0067 8.28 23.94 8.28H23.9C23.84 8.28 23.7967 8.25333 23.77 8.2L22.53 5.58C22.4033 5.33333 22.2833 5.08 22.17 4.82C22.0567 4.55333 21.95 4.29667 21.85 4.05H21.82C21.8333 4.30333 21.8433 4.56667 21.85 4.84C21.8567 5.10667 21.8567 5.37 21.85 5.63L21.77 8.88C21.77 8.96 21.7333 9 21.66 9H20.71ZM28.7016 9C28.6282 9 28.5916 8.96 28.5916 8.88V2.57C28.5916 2.49 28.6282 2.45 28.7016 2.45H32.5316C32.6049 2.45 32.6416 2.49 32.6416 2.57V3.39C32.6416 3.47 32.6049 3.51 32.5316 3.51H29.7916V5.18H32.2916C32.3649 5.18 32.4016 5.22 32.4016 5.3V6.07C32.4016 6.15 32.3649 6.19 32.2916 6.19H29.7916V7.94H32.5316C32.6049 7.94 32.6416 7.98 32.6416 8.06V8.88C32.6416 8.96 32.6049 9 32.5316 9H28.7016ZM34.102 9C34.0286 9 33.992 8.96 33.992 8.88V2.57C33.992 2.49 34.0286 2.45 34.102 2.45H36.122C37.1553 2.45 37.9253 2.69 38.432 3.17C38.9386 3.65 39.192 4.37 39.192 5.33V5.93C39.192 6.95 38.9386 7.71667 38.432 8.23C37.932 8.74333 37.162 9 36.122 9H34.102ZM35.192 7.97H36.042C36.7153 7.97 37.2086 7.80333 37.522 7.47C37.8353 7.13 37.992 6.62 37.992 5.94V5.32C37.992 4.7 37.8353 4.24 37.522 3.94C37.2086 3.63333 36.7153 3.48 36.042 3.48H35.192V7.97ZM40.5961 9C40.5228 9 40.4861 8.96 40.4861 8.88V2.57C40.4861 2.49 40.5228 2.45 40.5961 2.45H41.5661C41.6461 2.45 41.6861 2.49 41.6861 2.57V8.88C41.6861 8.96 41.6461 9 41.5661 9H40.5961ZM45.6721 9.12C44.8388 9.12 44.2021 8.91333 43.7621 8.5C43.3221 8.08667 43.1021 7.47 43.1021 6.65V2.57C43.1021 2.49 43.1388 2.45 43.2121 2.45H44.1821C44.2221 2.45 44.2521 2.46 44.2721 2.48C44.2921 2.5 44.3021 2.53 44.3021 2.57V6.63C44.3021 7.09 44.4154 7.44667 44.6421 7.7C44.8688 7.94667 45.2121 8.07 45.6721 8.07C46.1321 8.07 46.4754 7.94667 46.7021 7.7C46.9288 7.44667 47.0421 7.09 47.0421 6.63V2.57C47.0421 2.49 47.0788 2.45 47.1521 2.45H48.1221C48.2021 2.45 48.2421 2.49 48.2421 2.57V6.67C48.2421 7.46333 48.0188 8.07 47.5721 8.49C47.1254 8.91 46.4921 9.12 45.6721 9.12ZM49.6358 9C49.6024 9 49.5758 8.99 49.5558 8.97C49.5358 8.94333 49.5258 8.91333 49.5258 8.88L49.6558 2.57C49.6558 2.49 49.6958 2.45 49.7758 2.45H51.0658C51.1258 2.45 51.1691 2.48 51.1958 2.54L52.8658 6.18L54.5058 2.54C54.5391 2.48 54.5858 2.45 54.6458 2.45H55.9358C56.0091 2.45 56.0458 2.49 56.0458 2.57L56.1858 8.88C56.1858 8.91333 56.1758 8.94333 56.1558 8.97C56.1358 8.99 56.1058 9 56.0658 9H55.1258C55.0458 9 55.0058 8.96 55.0058 8.88L54.9258 5.65C54.9191 5.38333 54.9224 5.11667 54.9358 4.85C54.9491 4.57667 54.9591 4.31 54.9658 4.05H54.9358C54.8291 4.31 54.7158 4.57333 54.5958 4.84C54.4824 5.1 54.3624 5.35667 54.2358 5.61L53.0058 8.2C52.9791 8.25333 52.9324 8.28 52.8658 8.28H52.8258C52.7658 8.28 52.7224 8.25333 52.6958 8.2L51.4558 5.58C51.3291 5.33333 51.2091 5.08 51.0958 4.82C50.9824 4.55333 50.8758 4.29667 50.7758 4.05H50.7458C50.7591 4.30333 50.7691 4.56667 50.7758 4.84C50.7824 5.10667 50.7824 5.37 50.7758 5.63L50.6958 8.88C50.6958 8.96 50.6591 9 50.5858 9H49.6358Z" fill="white"/>
</svg>
