<svg width="50" height="10" viewBox="0 0 50 10" fill="none" xmlns="http://www.w3.org/2000/svg">
<rect y="0.222229" width="50" height="9.77778" rx="2" fill="#FB8C00"/>
<path d="M14.504 7.32H13.664L12.56 4.168L12.432 8H11.368L11.68 2.656H12.928L14.08 6.096L15.24 2.656H16.488L16.8 8H15.728L15.6 4.176L14.504 7.32ZM18.8359 7.072H21.1239V8H17.6839V2.648H21.0519V3.576H18.8359V4.784H20.9239V5.68H18.8359V7.072ZM23.1249 3.696V6.968H23.5249C24.0316 6.968 24.3703 6.83733 24.5409 6.576C24.7169 6.30933 24.8049 5.89333 24.8049 5.328C24.8049 4.76267 24.7196 4.34933 24.5489 4.088C24.3783 3.82667 24.0369 3.696 23.5249 3.696H23.1249ZM23.4769 8H21.9729V2.664H23.4769C24.1489 2.664 24.6183 2.73333 24.8849 2.872C25.5889 3.23467 25.9409 4.056 25.9409 5.336C25.9409 5.912 25.8556 6.41867 25.6849 6.856C25.5196 7.29333 25.2556 7.60267 24.8929 7.784C24.6049 7.928 24.1329 8 23.4769 8ZM27.9296 2.656V8H26.7776V2.656H27.9296ZM28.9173 6.032V2.664H30.0773V5.992C30.0773 6.45067 30.1306 6.752 30.2373 6.896C30.344 7.056 30.5546 7.136 30.8693 7.136C31.1893 7.136 31.4 7.05333 31.5013 6.888C31.608 6.74933 31.6613 6.45067 31.6613 5.992V2.664H32.8213V6.032C32.8213 6.65067 32.696 7.136 32.4453 7.488C32.1253 7.88267 31.6 8.08533 30.8693 8.096C30.1386 8.096 29.6106 7.89333 29.2853 7.488C29.04 7.13067 28.9173 6.64533 28.9173 6.032ZM36.8009 7.32H35.9609L34.8569 4.168L34.7289 8H33.6649L33.9769 2.656H35.2249L36.3769 6.096L37.5369 2.656H38.7849L39.0969 8H38.0249L37.8969 4.176L36.8009 7.32Z" fill="white"/>
</svg>
