<svg width="50" height="10" viewBox="0 0 50 10" fill="none" xmlns="http://www.w3.org/2000/svg">
<rect y="0.222229" width="50" height="9.77778" rx="4.88889" fill="#F8DA20"/>
<path d="M12.942 7.235H11.997L10.755 3.689L10.611 8H9.414L9.765 1.988H11.169L12.465 5.858L13.77 1.988H15.174L15.525 8H14.319L14.175 3.698L12.942 7.235ZM17.8154 6.956H20.3894V8H16.5194V1.979H20.3084V3.023H17.8154V4.382H20.1644V5.39H17.8154V6.956ZM22.6406 3.158V6.839H23.0906C23.6606 6.839 24.0416 6.692 24.2336 6.398C24.4316 6.098 24.5306 5.63 24.5306 4.994C24.5306 4.358 24.4346 3.893 24.2426 3.599C24.0506 3.305 23.6666 3.158 23.0906 3.158H22.6406ZM23.0366 8H21.3446V1.997H23.0366C23.7926 1.997 24.3206 2.075 24.6206 2.231C25.4126 2.639 25.8086 3.563 25.8086 5.003C25.8086 5.651 25.7126 6.221 25.5206 6.713C25.3346 7.205 25.0376 7.553 24.6296 7.757C24.3056 7.919 23.7746 8 23.0366 8ZM28.0458 1.988V8H26.7498V1.988H28.0458ZM29.157 5.786V1.997H30.462V5.741C30.462 6.257 30.522 6.596 30.642 6.758C30.762 6.938 30.999 7.028 31.353 7.028C31.713 7.028 31.95 6.935 32.064 6.749C32.184 6.593 32.244 6.257 32.244 5.741V1.997H33.549V5.786C33.549 6.482 33.408 7.028 33.126 7.424C32.766 7.868 32.175 8.096 31.353 8.108C30.531 8.108 29.937 7.88 29.571 7.424C29.295 7.022 29.157 6.476 29.157 5.786ZM38.026 7.235H37.081L35.839 3.689L35.695 8H34.498L34.849 1.988H36.253L37.549 5.858L38.854 1.988H40.258L40.609 8H39.403L39.259 3.698L38.026 7.235Z" fill="white"/>
</svg>
