<svg width="50" height="10" viewBox="0 0 50 10" fill="none" xmlns="http://www.w3.org/2000/svg">
<rect y="0.222229" width="50" height="9.77778" rx="2" fill="#1B5E20"/>
<path d="M15.776 3.424C15.936 3.152 16.16 2.94133 16.448 2.792C16.7413 2.63733 17.0667 2.56 17.424 2.56C17.7813 2.56 18.0853 2.61333 18.336 2.72C18.592 2.82133 18.8 2.95733 18.96 3.128C19.12 3.29867 19.2507 3.504 19.352 3.744C19.5387 4.192 19.632 4.72 19.632 5.328C19.632 6.08533 19.48 6.72 19.176 7.232C19.016 7.49867 18.7893 7.70933 18.496 7.864C18.2027 8.01867 17.8747 8.096 17.512 8.096C17.1547 8.096 16.8507 8.04533 16.6 7.944C16.3493 7.83733 16.144 7.69867 15.984 7.528C15.824 7.35733 15.6933 7.152 15.592 6.912C15.4053 6.464 15.312 5.936 15.312 5.328C15.312 4.576 15.4667 3.94133 15.776 3.424ZM16.656 6.648C16.8107 6.96267 17.0827 7.12 17.472 7.12C17.8613 7.12 18.1333 6.96267 18.288 6.648C18.4427 6.328 18.52 5.936 18.52 5.472C18.52 5.008 18.4933 4.65067 18.44 4.4C18.3867 4.144 18.28 3.93067 18.12 3.76C17.96 3.584 17.76 3.496 17.52 3.496C17.2853 3.496 17.096 3.544 16.952 3.64C16.8133 3.73067 16.7067 3.864 16.632 4.04C16.4933 4.36533 16.424 4.80267 16.424 5.352C16.424 5.896 16.5013 6.328 16.656 6.648ZM23.6173 3.12C23.9426 3.408 24.1053 3.82667 24.1053 4.376C24.1053 4.92 23.924 5.33867 23.5613 5.632C23.3746 5.78133 23.148 5.888 22.8813 5.952C22.6146 6.016 22.2573 6.048 21.8093 6.048H21.6093V8H20.4573V2.656H22.0013C22.4066 2.656 22.7293 2.69067 22.9693 2.76C23.2146 2.82933 23.4306 2.94933 23.6173 3.12ZM22.7133 5.032C22.8946 4.90933 22.9853 4.68267 22.9853 4.352C22.9853 4.016 22.892 3.792 22.7053 3.68C22.524 3.56267 22.228 3.504 21.8173 3.504H21.6093V5.2H21.6973C22.2253 5.2 22.564 5.144 22.7133 5.032ZM25.9296 7.072H28.2176V8H24.7776V2.648H28.1456V3.576H25.9296V4.784H28.0176V5.68H25.9296V7.072ZM33.4987 8H32.2827L30.1787 4.264V8H29.0667V2.656H30.2827L32.3787 6.4V2.656H33.4987V8Z" fill="white"/>
</svg>
