<svg width="50" height="10" viewBox="0 0 50 10" fill="none" xmlns="http://www.w3.org/2000/svg">
<rect y="0.222229" width="50" height="9.77778" rx="4.88889" fill="#1B5E20"/>
<path d="M14.873 2.852C15.053 2.546 15.305 2.309 15.629 2.141C15.959 1.967 16.325 1.88 16.727 1.88C17.129 1.88 17.471 1.94 17.753 2.06C18.041 2.174 18.275 2.327 18.455 2.519C18.635 2.711 18.782 2.942 18.896 3.212C19.106 3.716 19.211 4.31 19.211 4.994C19.211 5.846 19.04 6.56 18.698 7.136C18.518 7.436 18.263 7.673 17.933 7.847C17.603 8.021 17.234 8.108 16.826 8.108C16.424 8.108 16.082 8.051 15.8 7.937C15.518 7.817 15.287 7.661 15.107 7.469C14.927 7.277 14.78 7.046 14.666 6.776C14.456 6.272 14.351 5.678 14.351 4.994C14.351 4.148 14.525 3.434 14.873 2.852ZM15.863 6.479C16.037 6.833 16.343 7.01 16.781 7.01C17.219 7.01 17.525 6.833 17.699 6.479C17.873 6.119 17.96 5.678 17.96 5.156C17.96 4.634 17.93 4.232 17.87 3.95C17.81 3.662 17.69 3.422 17.51 3.23C17.33 3.032 17.105 2.933 16.835 2.933C16.571 2.933 16.358 2.987 16.196 3.095C16.04 3.197 15.92 3.347 15.836 3.545C15.68 3.911 15.602 4.403 15.602 5.021C15.602 5.633 15.689 6.119 15.863 6.479ZM23.6945 2.51C24.0605 2.834 24.2435 3.305 24.2435 3.923C24.2435 4.535 24.0395 5.006 23.6315 5.336C23.4215 5.504 23.1665 5.624 22.8665 5.696C22.5665 5.768 22.1645 5.804 21.6605 5.804H21.4355V8H20.1395V1.988H21.8765C22.3325 1.988 22.6955 2.027 22.9655 2.105C23.2415 2.183 23.4845 2.318 23.6945 2.51ZM22.6775 4.661C22.8815 4.523 22.9835 4.268 22.9835 3.896C22.9835 3.518 22.8785 3.266 22.6685 3.14C22.4645 3.008 22.1315 2.942 21.6695 2.942H21.4355V4.85H21.5345C22.1285 4.85 22.5095 4.787 22.6775 4.661ZM26.2958 6.956H28.8698V8H24.9998V1.979H28.7888V3.023H26.2958V4.382H28.6448V5.39H26.2958V6.956ZM34.811 8H33.443L31.076 3.797V8H29.825V1.988H31.193L33.551 6.2V1.988H34.811V8Z" fill="white"/>
</svg>
