<svg width="75" height="11" viewBox="0 0 75 11" fill="none" xmlns="http://www.w3.org/2000/svg">
<rect width="74.8" height="11" rx="2" fill="#1B5E20"/>
<path d="M28.26 9.12C27.38 9.12 26.72 8.91 26.28 8.49C25.84 8.06333 25.62 7.45333 25.62 6.66V4.79C25.62 3.99 25.84 3.38 26.28 2.96C26.72 2.54 27.38 2.33 28.26 2.33C29.1333 2.33 29.79 2.54 30.23 2.96C30.67 3.38 30.89 3.99 30.89 4.79V6.66C30.89 7.45333 30.67 8.06333 30.23 8.49C29.79 8.91 29.1333 9.12 28.26 9.12ZM28.26 8.07C28.7333 8.07 29.09 7.94667 29.33 7.7C29.57 7.44667 29.69 7.08 29.69 6.6V4.85C29.69 4.37 29.57 4.00667 29.33 3.76C29.09 3.50667 28.7333 3.38 28.26 3.38C27.7867 3.38 27.4267 3.50667 27.18 3.76C26.94 4.00667 26.82 4.37 26.82 4.85V6.6C26.82 7.08 26.94 7.44667 27.18 7.7C27.4267 7.94667 27.7867 8.07 28.26 8.07ZM32.3637 9C32.2903 9 32.2537 8.96 32.2537 8.88V2.57C32.2537 2.49 32.2903 2.45 32.3637 2.45H34.2237C35.0903 2.45 35.727 2.63333 36.1337 3C36.547 3.36 36.7537 3.89 36.7537 4.59C36.7537 5.27667 36.5437 5.80333 36.1237 6.17C35.7037 6.53 35.0737 6.71 34.2337 6.71H33.4537V8.88C33.4537 8.96 33.4137 9 33.3337 9H32.3637ZM33.4537 5.69H34.2137C34.667 5.69 35.0037 5.60333 35.2237 5.43C35.4437 5.25667 35.5537 4.98 35.5537 4.6C35.5537 4.2 35.4437 3.91333 35.2237 3.74C35.0037 3.56667 34.6637 3.48 34.2037 3.48H33.4537V5.69ZM37.9496 9C37.8763 9 37.8396 8.96 37.8396 8.88V2.57C37.8396 2.49 37.8763 2.45 37.9496 2.45H41.7796C41.8529 2.45 41.8896 2.49 41.8896 2.57V3.39C41.8896 3.47 41.8529 3.51 41.7796 3.51H39.0396V5.18H41.5396C41.6129 5.18 41.6496 5.22 41.6496 5.3V6.07C41.6496 6.15 41.6129 6.19 41.5396 6.19H39.0396V7.94H41.7796C41.8529 7.94 41.8896 7.98 41.8896 8.06V8.88C41.8896 8.96 41.8529 9 41.7796 9H37.9496ZM43.35 9C43.2767 9 43.24 8.96 43.24 8.88V2.57C43.24 2.49 43.2767 2.45 43.35 2.45H44.77C44.8367 2.45 44.8833 2.47667 44.91 2.53L46.52 5.78C46.6333 6 46.7367 6.21333 46.83 6.42C46.93 6.62667 47.02 6.82333 47.1 7.01C47.18 7.19667 47.25 7.37 47.31 7.53H47.34C47.3333 7.39667 47.3267 7.25333 47.32 7.1C47.3133 6.94667 47.3067 6.79 47.3 6.63C47.2933 6.47 47.29 6.31333 47.29 6.16C47.29 6.00667 47.29 5.86333 47.29 5.73V2.57C47.29 2.49 47.3267 2.45 47.4 2.45H48.34C48.42 2.45 48.46 2.49 48.46 2.57V8.88C48.46 8.96 48.42 9 48.34 9H46.94C46.8733 9 46.8267 8.97333 46.8 8.92L45.24 5.78C45.14 5.58 45.04 5.37667 44.94 5.17C44.8467 4.95667 44.7533 4.74667 44.66 4.54C44.5733 4.33333 44.49 4.13667 44.41 3.95H44.38C44.3867 4.10333 44.39 4.26 44.39 4.42C44.3967 4.58 44.4 4.74 44.4 4.9C44.4067 5.06 44.41 5.22 44.41 5.38C44.41 5.54 44.41 5.7 44.41 5.86V8.88C44.41 8.96 44.37 9 44.29 9H43.35Z" fill="white"/>
</svg>
