<svg width="50" height="10" viewBox="0 0 50 10" fill="none" xmlns="http://www.w3.org/2000/svg">
<rect y="0.222229" width="50" height="9.77778" rx="2" fill="#FB8C00"/>
<path d="M7.672 3.12C7.99733 3.408 8.16 3.82667 8.16 4.376C8.16 4.92 7.97867 5.33867 7.616 5.632C7.42933 5.78133 7.20267 5.888 6.936 5.952C6.66933 6.016 6.312 6.048 5.864 6.048H5.664V8H4.512V2.656H6.056C6.46133 2.656 6.784 2.69067 7.024 2.76C7.26933 2.82933 7.48533 2.94933 7.672 3.12ZM6.768 5.032C6.94933 4.90933 7.04 4.68267 7.04 4.352C7.04 4.016 6.94667 3.792 6.76 3.68C6.57867 3.56267 6.28267 3.504 5.872 3.504H5.664V5.2H5.752C6.28 5.2 6.61867 5.144 6.768 5.032ZM10.1843 6.048H9.98431V8H8.83231V2.656H10.3763C10.7816 2.656 11.1043 2.69067 11.3443 2.76C11.5896 2.82933 11.8056 2.94933 11.9923 3.12C12.3176 3.408 12.4803 3.80267 12.4803 4.304C12.4803 4.91733 12.299 5.36 11.9363 5.632C11.8136 5.728 11.6696 5.808 11.5043 5.872L12.8723 7.736L12.0083 8.264L10.4243 6.04C10.3763 6.04533 10.2963 6.048 10.1843 6.048ZM11.0883 5.032C11.275 4.904 11.3683 4.69067 11.3683 4.392C11.3683 4.088 11.291 3.864 11.1363 3.72C10.987 3.576 10.6723 3.504 10.1923 3.504H9.98431V5.2H10.0723C10.6003 5.2 10.939 5.144 11.0883 5.032ZM13.6901 3.424C13.8501 3.152 14.0741 2.94133 14.3621 2.792C14.6554 2.63733 14.9807 2.56 15.3381 2.56C15.6954 2.56 15.9994 2.61333 16.2501 2.72C16.5061 2.82133 16.7141 2.95733 16.8741 3.128C17.0341 3.29867 17.1647 3.504 17.2661 3.744C17.4527 4.192 17.5461 4.72 17.5461 5.328C17.5461 6.08533 17.3941 6.72 17.0901 7.232C16.9301 7.49867 16.7034 7.70933 16.4101 7.864C16.1167 8.01867 15.7887 8.096 15.4261 8.096C15.0687 8.096 14.7647 8.04533 14.5141 7.944C14.2634 7.83733 14.0581 7.69867 13.8981 7.528C13.7381 7.35733 13.6074 7.152 13.5061 6.912C13.3194 6.464 13.2261 5.936 13.2261 5.328C13.2261 4.576 13.3807 3.94133 13.6901 3.424ZM14.5701 6.648C14.7247 6.96267 14.9967 7.12 15.3861 7.12C15.7754 7.12 16.0474 6.96267 16.2021 6.648C16.3567 6.328 16.4341 5.936 16.4341 5.472C16.4341 5.008 16.4074 4.65067 16.3541 4.4C16.3007 4.144 16.1941 3.93067 16.0341 3.76C15.8741 3.584 15.6741 3.496 15.4341 3.496C15.1994 3.496 15.0101 3.544 14.8661 3.64C14.7274 3.73067 14.6207 3.864 14.5461 4.04C14.4074 4.36533 14.3381 4.80267 14.3381 5.352C14.3381 5.896 14.4154 6.328 14.5701 6.648ZM21.7234 7.96C21.302 8.056 20.91 8.104 20.5474 8.104C20.19 8.104 19.878 8.05867 19.6114 7.968C19.35 7.872 19.1074 7.72 18.8834 7.512C18.4087 7.06933 18.1714 6.336 18.1714 5.312C18.1714 4.80533 18.2407 4.368 18.3794 4C18.518 3.62667 18.7074 3.33867 18.9474 3.136C19.3954 2.75733 19.9367 2.568 20.5714 2.568C20.9714 2.568 21.374 2.62667 21.7794 2.744L21.5954 3.568C21.2914 3.50933 21.0087 3.48 20.7474 3.48C20.3154 3.48 19.974 3.616 19.7234 3.888C19.4727 4.15467 19.3474 4.62667 19.3474 5.304C19.3474 5.976 19.4754 6.45333 19.7314 6.736C19.9874 7.01333 20.342 7.152 20.7954 7.152C21.11 7.152 21.3954 7.13067 21.6514 7.088L21.7234 7.96ZM23.6718 7.072H25.9598V8H22.5198V2.648H25.8878V3.576H23.6718V4.784H25.7598V5.68H23.6718V7.072ZM30.0338 6.504C30.0338 6.97867 29.8685 7.36533 29.5378 7.664C29.2125 7.95733 28.7725 8.104 28.2178 8.104C27.9511 8.104 27.6498 8.06933 27.3138 8C26.9831 7.92533 26.7085 7.83733 26.4898 7.736L26.7858 6.784C27.2765 7.008 27.7405 7.12 28.1778 7.12C28.6738 7.12 28.9218 6.928 28.9218 6.544C28.9218 6.35733 28.8391 6.19733 28.6738 6.064C28.5085 5.93067 28.2845 5.8 28.0018 5.672C27.7191 5.53867 27.5165 5.43733 27.3938 5.368C27.2765 5.29867 27.1458 5.2 27.0018 5.072C26.7298 4.832 26.5938 4.48267 26.5938 4.024C26.5938 3.56533 26.7538 3.20533 27.0738 2.944C27.3991 2.68267 27.7991 2.552 28.2738 2.552C28.7538 2.552 29.2685 2.65333 29.8178 2.856L29.4978 3.728C29.0605 3.57333 28.6871 3.496 28.3778 3.496C27.9351 3.496 27.7111 3.672 27.7058 4.024C27.7058 4.168 27.7538 4.27733 27.8498 4.352C27.9458 4.42133 28.0151 4.472 28.0578 4.504C28.1005 4.53067 28.1858 4.57867 28.3138 4.648C28.4471 4.712 28.5698 4.776 28.6818 4.84C28.7938 4.89867 28.8951 4.95733 28.9858 5.016C29.0818 5.06933 29.2071 5.15467 29.3618 5.272C29.5165 5.38933 29.6338 5.49867 29.7138 5.6C29.9271 5.86667 30.0338 6.168 30.0338 6.504ZM34.026 6.504C34.026 6.97867 33.8607 7.36533 33.53 7.664C33.2047 7.95733 32.7647 8.104 32.21 8.104C31.9433 8.104 31.642 8.06933 31.306 8C30.9753 7.92533 30.7007 7.83733 30.482 7.736L30.778 6.784C31.2687 7.008 31.7327 7.12 32.17 7.12C32.666 7.12 32.914 6.928 32.914 6.544C32.914 6.35733 32.8313 6.19733 32.666 6.064C32.5007 5.93067 32.2767 5.8 31.994 5.672C31.7113 5.53867 31.5087 5.43733 31.386 5.368C31.2687 5.29867 31.138 5.2 30.994 5.072C30.722 4.832 30.586 4.48267 30.586 4.024C30.586 3.56533 30.746 3.20533 31.066 2.944C31.3913 2.68267 31.7913 2.552 32.266 2.552C32.746 2.552 33.2607 2.65333 33.81 2.856L33.49 3.728C33.0527 3.57333 32.6793 3.496 32.37 3.496C31.9273 3.496 31.7033 3.672 31.698 4.024C31.698 4.168 31.746 4.27733 31.842 4.352C31.938 4.42133 32.0073 4.472 32.05 4.504C32.0927 4.53067 32.178 4.57867 32.306 4.648C32.4393 4.712 32.562 4.776 32.674 4.84C32.786 4.89867 32.8873 4.95733 32.978 5.016C33.074 5.06933 33.1993 5.15467 33.354 5.272C33.5087 5.38933 33.626 5.49867 33.706 5.6C33.9193 5.86667 34.026 6.168 34.026 6.504ZM35.9062 2.656V8H34.7542V2.656H35.9062ZM41.3659 8H40.1499L38.0459 4.264V8H36.9339V2.656H38.1499L40.2459 6.4V2.656H41.3659V8ZM42.947 3.144C43.187 2.94133 43.4403 2.79467 43.707 2.704C43.979 2.61333 44.299 2.568 44.667 2.568C45.035 2.568 45.4723 2.63733 45.979 2.776L45.811 3.608C45.4537 3.52267 45.0803 3.48 44.691 3.48C44.3017 3.48 43.9817 3.616 43.731 3.888C43.4803 4.15467 43.355 4.62133 43.355 5.288C43.355 6.53067 43.7683 7.152 44.595 7.152C44.7603 7.152 44.9337 7.136 45.115 7.104V6.112H44.363V5.272H46.163V7.752C45.5763 7.98667 44.979 8.104 44.371 8.104C43.763 8.104 43.251 7.88267 42.835 7.44C42.419 6.992 42.2003 6.28267 42.179 5.312C42.179 4.80533 42.2483 4.368 42.387 4C42.5257 3.62667 42.7123 3.34133 42.947 3.144Z" fill="white"/>
</svg>
