<svg width="85" height="13" viewBox="0 0 85 13" fill="none" xmlns="http://www.w3.org/2000/svg">
<rect width="74.8" height="11" rx="2" fill="#F7D500"/>
<path d="M10.85 9C10.7767 9 10.74 8.96 10.74 8.88V2.57C10.74 2.49 10.7767 2.45 10.85 2.45H12.71C13.5767 2.45 14.2133 2.63333 14.62 3C15.0333 3.36 15.24 3.89 15.24 4.59C15.24 5.27667 15.03 5.80333 14.61 6.17C14.19 6.53 13.56 6.71 12.72 6.71H11.94V8.88C11.94 8.96 11.9 9 11.82 9H10.85ZM11.94 5.69H12.7C13.1533 5.69 13.49 5.60333 13.71 5.43C13.93 5.25667 14.04 4.98 14.04 4.6C14.04 4.2 13.93 3.91333 13.71 3.74C13.49 3.56667 13.15 3.48 12.69 3.48H11.94V5.69ZM16.4359 9C16.3626 9 16.3259 8.96 16.3259 8.88V2.57C16.3259 2.49 16.3626 2.45 16.4359 2.45H18.5359C19.3959 2.45 20.0226 2.61667 20.4159 2.95C20.8093 3.27667 21.0059 3.75667 21.0059 4.39C21.0059 4.85 20.8993 5.24 20.6859 5.56C20.4793 5.87333 20.1693 6.09 19.7559 6.21V6.23L21.3659 8.86C21.3926 8.9 21.3959 8.93333 21.3759 8.96C21.3626 8.98667 21.3326 9 21.2859 9H20.1759C20.1159 9 20.0693 8.97333 20.0359 8.92L18.5259 6.39H17.5259V8.88C17.5259 8.96 17.4859 9 17.4059 9H16.4359ZM17.5259 5.44H18.4859C18.9459 5.44 19.2793 5.36 19.4859 5.2C19.6993 5.04 19.8059 4.78333 19.8059 4.43C19.8059 4.08333 19.7093 3.83667 19.5159 3.69C19.3226 3.54333 18.9959 3.47 18.5359 3.47H17.5259V5.44ZM24.8616 9.12C23.9816 9.12 23.3216 8.91 22.8816 8.49C22.4416 8.06333 22.2216 7.45333 22.2216 6.66V4.79C22.2216 3.99 22.4416 3.38 22.8816 2.96C23.3216 2.54 23.9816 2.33 24.8616 2.33C25.7349 2.33 26.3916 2.54 26.8316 2.96C27.2716 3.38 27.4916 3.99 27.4916 4.79V6.66C27.4916 7.45333 27.2716 8.06333 26.8316 8.49C26.3916 8.91 25.7349 9.12 24.8616 9.12ZM24.8616 8.07C25.3349 8.07 25.6916 7.94667 25.9316 7.7C26.1716 7.44667 26.2916 7.08 26.2916 6.6V4.85C26.2916 4.37 26.1716 4.00667 25.9316 3.76C25.6916 3.50667 25.3349 3.38 24.8616 3.38C24.3882 3.38 24.0282 3.50667 23.7816 3.76C23.5416 4.00667 23.4216 4.37 23.4216 4.85V6.6C23.4216 7.08 23.5416 7.44667 23.7816 7.7C24.0282 7.94667 24.3882 8.07 24.8616 8.07ZM31.3552 9.12C30.5086 9.12 29.8586 8.91333 29.4052 8.5C28.9586 8.08 28.7352 7.46333 28.7352 6.65V4.81C28.7352 3.99 28.9619 3.37333 29.4152 2.96C29.8686 2.54 30.5152 2.33 31.3552 2.33C31.9286 2.33 32.4219 2.42333 32.8352 2.61C33.2486 2.79667 33.5552 3.06333 33.7552 3.41C33.9552 3.75667 34.0219 4.16667 33.9552 4.64C33.9486 4.67333 33.9352 4.70667 33.9152 4.74C33.9019 4.76667 33.8752 4.78 33.8352 4.78H32.8652C32.7852 4.78 32.7486 4.74 32.7552 4.66C32.7686 4.25333 32.6586 3.94 32.4252 3.72C32.1986 3.49333 31.8486 3.38 31.3752 3.38C30.9152 3.38 30.5586 3.5 30.3052 3.74C30.0586 3.98 29.9352 4.34333 29.9352 4.83V6.62C29.9352 7.10667 30.0586 7.47 30.3052 7.71C30.5586 7.95 30.9152 8.07 31.3752 8.07C31.8619 8.07 32.2219 7.95667 32.4552 7.73C32.6886 7.49667 32.7886 7.18333 32.7552 6.79C32.7486 6.71 32.7852 6.67 32.8652 6.67H33.8252C33.8986 6.67 33.9419 6.71667 33.9552 6.81C34.0019 7.27667 33.9219 7.68333 33.7152 8.03C33.5152 8.37667 33.2119 8.64667 32.8052 8.84C32.4052 9.02667 31.9219 9.12 31.3552 9.12ZM35.391 9C35.3177 9 35.281 8.96 35.281 8.88V2.57C35.281 2.49 35.3177 2.45 35.391 2.45H39.221C39.2943 2.45 39.331 2.49 39.331 2.57V3.39C39.331 3.47 39.2943 3.51 39.221 3.51H36.481V5.18H38.981C39.0543 5.18 39.091 5.22 39.091 5.3V6.07C39.091 6.15 39.0543 6.19 38.981 6.19H36.481V7.94H39.221C39.2943 7.94 39.331 7.98 39.331 8.06V8.88C39.331 8.96 39.2943 9 39.221 9H35.391ZM42.7314 9.12C42.1714 9.12 41.7081 9.04333 41.3414 8.89C40.9814 8.73667 40.7214 8.51667 40.5614 8.23C40.4014 7.93667 40.3381 7.58333 40.3714 7.17C40.3847 7.05667 40.4314 7 40.5114 7H41.4514C41.5381 7 41.5781 7.05 41.5714 7.15C41.5714 7.47667 41.6714 7.71667 41.8714 7.87C42.0714 8.01667 42.3781 8.09 42.7914 8.09C43.1981 8.09 43.4981 8.02667 43.6914 7.9C43.8914 7.76667 43.9914 7.56333 43.9914 7.29C43.9914 7.16333 43.9681 7.05333 43.9214 6.96C43.8747 6.86 43.7947 6.77333 43.6814 6.7C43.5681 6.62 43.4147 6.54 43.2214 6.46L41.7714 5.84C41.4514 5.7 41.1947 5.55 41.0014 5.39C40.8081 5.22333 40.6714 5.03333 40.5914 4.82C40.5114 4.60667 40.4714 4.36333 40.4714 4.09C40.4781 3.52333 40.6681 3.09 41.0414 2.79C41.4147 2.49 41.9714 2.34 42.7114 2.34C43.2314 2.34 43.6714 2.41333 44.0314 2.56C44.3981 2.7 44.6714 2.91 44.8514 3.19C45.0314 3.46333 45.1014 3.80667 45.0614 4.22C45.0481 4.34 45.0081 4.4 44.9414 4.4H43.9914C43.9514 4.4 43.9214 4.38667 43.9014 4.36C43.8814 4.33333 43.8747 4.28667 43.8814 4.22C43.9014 3.95333 43.8047 3.74333 43.5914 3.59C43.3847 3.43 43.0881 3.35 42.7014 3.35C42.3614 3.35 42.1047 3.41 41.9314 3.53C41.7581 3.65 41.6714 3.83 41.6714 4.07C41.6714 4.19667 41.6947 4.31 41.7414 4.41C41.7881 4.50333 41.8681 4.59 41.9814 4.67C42.1014 4.75 42.2614 4.83333 42.4614 4.92L43.8914 5.53C44.2181 5.66333 44.4747 5.81333 44.6614 5.98C44.8547 6.14 44.9914 6.32667 45.0714 6.54C45.1581 6.75333 45.1981 7.00667 45.1914 7.3C45.1914 7.88 44.9947 8.33 44.6014 8.65C44.2081 8.96333 43.5847 9.12 42.7314 9.12ZM48.2685 9.12C47.7085 9.12 47.2452 9.04333 46.8785 8.89C46.5185 8.73667 46.2585 8.51667 46.0985 8.23C45.9385 7.93667 45.8752 7.58333 45.9085 7.17C45.9218 7.05667 45.9685 7 46.0485 7H46.9885C47.0752 7 47.1152 7.05 47.1085 7.15C47.1085 7.47667 47.2085 7.71667 47.4085 7.87C47.6085 8.01667 47.9152 8.09 48.3285 8.09C48.7352 8.09 49.0352 8.02667 49.2285 7.9C49.4285 7.76667 49.5285 7.56333 49.5285 7.29C49.5285 7.16333 49.5052 7.05333 49.4585 6.96C49.4118 6.86 49.3318 6.77333 49.2185 6.7C49.1052 6.62 48.9518 6.54 48.7585 6.46L47.3085 5.84C46.9885 5.7 46.7318 5.55 46.5385 5.39C46.3452 5.22333 46.2085 5.03333 46.1285 4.82C46.0485 4.60667 46.0085 4.36333 46.0085 4.09C46.0152 3.52333 46.2052 3.09 46.5785 2.79C46.9518 2.49 47.5085 2.34 48.2485 2.34C48.7685 2.34 49.2085 2.41333 49.5685 2.56C49.9352 2.7 50.2085 2.91 50.3885 3.19C50.5685 3.46333 50.6385 3.80667 50.5985 4.22C50.5852 4.34 50.5452 4.4 50.4785 4.4H49.5285C49.4885 4.4 49.4585 4.38667 49.4385 4.36C49.4185 4.33333 49.4118 4.28667 49.4185 4.22C49.4385 3.95333 49.3418 3.74333 49.1285 3.59C48.9218 3.43 48.6252 3.35 48.2385 3.35C47.8985 3.35 47.6418 3.41 47.4685 3.53C47.2952 3.65 47.2085 3.83 47.2085 4.07C47.2085 4.19667 47.2318 4.31 47.2785 4.41C47.3252 4.50333 47.4052 4.59 47.5185 4.67C47.6385 4.75 47.7985 4.83333 47.9985 4.92L49.4285 5.53C49.7552 5.66333 50.0118 5.81333 50.1985 5.98C50.3918 6.14 50.5285 6.32667 50.6085 6.54C50.6952 6.75333 50.7352 7.00667 50.7285 7.3C50.7285 7.88 50.5318 8.33 50.1385 8.65C49.7452 8.96333 49.1218 9.12 48.2685 9.12ZM52.0512 9C51.9778 9 51.9412 8.96 51.9412 8.88V2.57C51.9412 2.49 51.9778 2.45 52.0512 2.45H53.0212C53.1012 2.45 53.1412 2.49 53.1412 2.57V8.88C53.1412 8.96 53.1012 9 53.0212 9H52.0512ZM54.7172 9C54.6439 9 54.6072 8.96 54.6072 8.88V2.57C54.6072 2.49 54.6439 2.45 54.7172 2.45H56.1372C56.2039 2.45 56.2505 2.47667 56.2772 2.53L57.8872 5.78C58.0005 6 58.1039 6.21333 58.1972 6.42C58.2972 6.62667 58.3872 6.82333 58.4672 7.01C58.5472 7.19667 58.6172 7.37 58.6772 7.53H58.7072C58.7005 7.39667 58.6939 7.25333 58.6872 7.1C58.6805 6.94667 58.6739 6.79 58.6672 6.63C58.6605 6.47 58.6572 6.31333 58.6572 6.16C58.6572 6.00667 58.6572 5.86333 58.6572 5.73V2.57C58.6572 2.49 58.6939 2.45 58.7672 2.45H59.7072C59.7872 2.45 59.8272 2.49 59.8272 2.57V8.88C59.8272 8.96 59.7872 9 59.7072 9H58.3072C58.2405 9 58.1939 8.97333 58.1672 8.92L56.6072 5.78C56.5072 5.58 56.4072 5.37667 56.3072 5.17C56.2139 4.95667 56.1205 4.74667 56.0272 4.54C55.9405 4.33333 55.8572 4.13667 55.7772 3.95H55.7472C55.7539 4.10333 55.7572 4.26 55.7572 4.42C55.7639 4.58 55.7672 4.74 55.7672 4.9C55.7739 5.06 55.7772 5.22 55.7772 5.38C55.7772 5.54 55.7772 5.7 55.7772 5.86V8.88C55.7772 8.96 55.7372 9 55.6572 9H54.7172ZM63.6066 9.12C63.12 9.12 62.6933 9.02667 62.3266 8.84C61.96 8.64667 61.6766 8.36667 61.4766 8C61.2766 7.63333 61.1766 7.18333 61.1766 6.65V4.8C61.1766 4 61.41 3.39 61.8766 2.97C62.35 2.54333 62.9966 2.33 63.8166 2.33C64.4033 2.33 64.8966 2.42333 65.2966 2.61C65.7033 2.79667 66 3.05667 66.1866 3.39C66.38 3.71667 66.4466 4.09333 66.3866 4.52C66.38 4.6 66.34 4.64 66.2666 4.64L65.2966 4.63C65.2166 4.63 65.18 4.59 65.1866 4.51C65.2 4.27 65.1566 4.06667 65.0566 3.9C64.9633 3.72667 64.8166 3.59667 64.6166 3.51C64.4166 3.42333 64.16 3.38 63.8466 3.38C63.36 3.38 62.9933 3.5 62.7466 3.74C62.5 3.97333 62.3766 4.33667 62.3766 4.83V6.62C62.3766 7.12 62.4966 7.48667 62.7366 7.72C62.9833 7.95333 63.3466 8.07 63.8266 8.07C64.2933 8.07 64.65 7.96333 64.8966 7.75C65.1433 7.53 65.2666 7.21333 65.2666 6.8V6.48H63.9166C63.8366 6.48 63.7966 6.44 63.7966 6.36V5.69C63.7966 5.61667 63.8366 5.58 63.9166 5.58H66.2966C66.33 5.58 66.3566 5.59 66.3766 5.61C66.3966 5.63 66.4066 5.65667 66.4066 5.69V7.53C66.4066 7.75667 66.41 7.98667 66.4166 8.22C66.43 8.45333 66.4533 8.67 66.4866 8.87C66.5 8.91 66.4933 8.94333 66.4666 8.97C66.4466 8.99 66.42 9 66.3866 9H65.6066C65.5733 9 65.5466 8.99333 65.5266 8.98C65.5066 8.96 65.49 8.93333 65.4766 8.9C65.4633 8.82 65.45 8.72333 65.4366 8.61C65.43 8.49667 65.4233 8.38667 65.4166 8.28H65.3966C65.2833 8.45333 65.14 8.60333 64.9666 8.73C64.8 8.85667 64.6033 8.95333 64.3766 9.02C64.15 9.08667 63.8933 9.12 63.6066 9.12Z" fill="white"/>
</svg>
