<svg width="50" height="10" viewBox="0 0 50 10" fill="none" xmlns="http://www.w3.org/2000/svg">
<rect y="0.222229" width="50" height="9.77778" rx="4.88889" fill="#F8DA20"/>
<path d="M5.131 2.51C5.497 2.834 5.68 3.305 5.68 3.923C5.68 4.535 5.476 5.006 5.068 5.336C4.858 5.504 4.603 5.624 4.303 5.696C4.003 5.768 3.601 5.804 3.097 5.804H2.872V8H1.576V1.988H3.313C3.769 1.988 4.132 2.027 4.402 2.105C4.678 2.183 4.921 2.318 5.131 2.51ZM4.114 4.661C4.318 4.523 4.42 4.268 4.42 3.896C4.42 3.518 4.315 3.266 4.105 3.14C3.901 3.008 3.568 2.942 3.106 2.942H2.872V4.85H2.971C3.565 4.85 3.946 4.787 4.114 4.661ZM7.95735 5.804H7.73235V8H6.43635V1.988H8.17335C8.62935 1.988 8.99235 2.027 9.26235 2.105C9.53835 2.183 9.78135 2.318 9.99135 2.51C10.3574 2.834 10.5404 3.278 10.5404 3.842C10.5404 4.532 10.3364 5.03 9.92835 5.336C9.79035 5.444 9.62835 5.534 9.44235 5.606L10.9814 7.703L10.0094 8.297L8.22735 5.795C8.17335 5.801 8.08335 5.804 7.95735 5.804ZM8.97435 4.661C9.18435 4.517 9.28935 4.277 9.28935 3.941C9.28935 3.599 9.20235 3.347 9.02835 3.185C8.86035 3.023 8.50635 2.942 7.96635 2.942H7.73235V4.85H7.83135C8.42535 4.85 8.80635 4.787 8.97435 4.661ZM11.9013 2.852C12.0813 2.546 12.3333 2.309 12.6573 2.141C12.9873 1.967 13.3533 1.88 13.7553 1.88C14.1573 1.88 14.4993 1.94 14.7813 2.06C15.0693 2.174 15.3033 2.327 15.4833 2.519C15.6633 2.711 15.8103 2.942 15.9243 3.212C16.1343 3.716 16.2393 4.31 16.2393 4.994C16.2393 5.846 16.0683 6.56 15.7263 7.136C15.5463 7.436 15.2913 7.673 14.9613 7.847C14.6313 8.021 14.2623 8.108 13.8543 8.108C13.4523 8.108 13.1103 8.051 12.8283 7.937C12.5463 7.817 12.3153 7.661 12.1353 7.469C11.9553 7.277 11.8083 7.046 11.6943 6.776C11.4843 6.272 11.3793 5.678 11.3793 4.994C11.3793 4.148 11.5533 3.434 11.9013 2.852ZM12.8913 6.479C13.0653 6.833 13.3713 7.01 13.8093 7.01C14.2473 7.01 14.5533 6.833 14.7273 6.479C14.9013 6.119 14.9883 5.678 14.9883 5.156C14.9883 4.634 14.9583 4.232 14.8983 3.95C14.8383 3.662 14.7183 3.422 14.5383 3.23C14.3583 3.032 14.1333 2.933 13.8633 2.933C13.5993 2.933 13.3863 2.987 13.2243 3.095C13.0683 3.197 12.9483 3.347 12.8643 3.545C12.7083 3.911 12.6303 4.403 12.6303 5.021C12.6303 5.633 12.7173 6.119 12.8913 6.479ZM20.9388 7.955C20.4648 8.063 20.0238 8.117 19.6158 8.117C19.2138 8.117 18.8628 8.066 18.5628 7.964C18.2688 7.856 17.9958 7.685 17.7438 7.451C17.2098 6.953 16.9428 6.128 16.9428 4.976C16.9428 4.406 17.0208 3.914 17.1768 3.5C17.3328 3.08 17.5458 2.756 17.8158 2.528C18.3198 2.102 18.9288 1.889 19.6428 1.889C20.0928 1.889 20.5458 1.955 21.0018 2.087L20.7948 3.014C20.4528 2.948 20.1348 2.915 19.8408 2.915C19.3548 2.915 18.9708 3.068 18.6888 3.374C18.4068 3.674 18.2658 4.205 18.2658 4.967C18.2658 5.723 18.4098 6.26 18.6978 6.578C18.9858 6.89 19.3848 7.046 19.8948 7.046C20.2488 7.046 20.5698 7.022 20.8578 6.974L20.9388 7.955ZM23.1308 6.956H25.7048V8H21.8348V1.979H25.6238V3.023H23.1308V4.382H25.4798V5.39H23.1308V6.956ZM30.288 6.317C30.288 6.851 30.102 7.286 29.73 7.622C29.364 7.952 28.869 8.117 28.245 8.117C27.945 8.117 27.606 8.078 27.228 8C26.856 7.916 26.547 7.817 26.301 7.703L26.634 6.632C27.186 6.884 27.708 7.01 28.2 7.01C28.758 7.01 29.037 6.794 29.037 6.362C29.037 6.152 28.944 5.972 28.758 5.822C28.572 5.672 28.32 5.525 28.002 5.381C27.684 5.231 27.456 5.117 27.318 5.039C27.186 4.961 27.039 4.85 26.877 4.706C26.571 4.436 26.418 4.043 26.418 3.527C26.418 3.011 26.598 2.606 26.958 2.312C27.324 2.018 27.774 1.871 28.308 1.871C28.848 1.871 29.427 1.985 30.045 2.213L29.685 3.194C29.193 3.02 28.773 2.933 28.425 2.933C27.927 2.933 27.675 3.131 27.669 3.527C27.669 3.689 27.723 3.812 27.831 3.896C27.939 3.974 28.017 4.031 28.065 4.067C28.113 4.097 28.209 4.151 28.353 4.229C28.503 4.301 28.641 4.373 28.767 4.445C28.893 4.511 29.007 4.577 29.109 4.643C29.217 4.703 29.358 4.799 29.532 4.931C29.706 5.063 29.838 5.186 29.928 5.3C30.168 5.6 30.288 5.939 30.288 6.317ZM34.7793 6.317C34.7793 6.851 34.5933 7.286 34.2213 7.622C33.8553 7.952 33.3603 8.117 32.7363 8.117C32.4363 8.117 32.0973 8.078 31.7192 8C31.3472 7.916 31.0383 7.817 30.7923 7.703L31.1252 6.632C31.6773 6.884 32.1993 7.01 32.6913 7.01C33.2493 7.01 33.5283 6.794 33.5283 6.362C33.5283 6.152 33.4353 5.972 33.2493 5.822C33.0633 5.672 32.8113 5.525 32.4933 5.381C32.1753 5.231 31.9473 5.117 31.8093 5.039C31.6773 4.961 31.5303 4.85 31.3683 4.706C31.0623 4.436 30.9093 4.043 30.9093 3.527C30.9093 3.011 31.0893 2.606 31.4493 2.312C31.8153 2.018 32.2653 1.871 32.7993 1.871C33.3393 1.871 33.9183 1.985 34.5363 2.213L34.1763 3.194C33.6843 3.02 33.2643 2.933 32.9163 2.933C32.4183 2.933 32.1663 3.131 32.1603 3.527C32.1603 3.689 32.2143 3.812 32.3223 3.896C32.4303 3.974 32.5083 4.031 32.5563 4.067C32.6043 4.097 32.7003 4.151 32.8442 4.229C32.9943 4.301 33.1323 4.373 33.2583 4.445C33.3843 4.511 33.4983 4.577 33.6003 4.643C33.7083 4.703 33.8493 4.799 34.0233 4.931C34.1973 5.063 34.3293 5.186 34.4193 5.3C34.6593 5.6 34.7793 5.939 34.7793 6.317ZM36.8945 1.988V8H35.5985V1.988H36.8945ZM43.0366 8H41.6686L39.3016 3.797V8H38.0506V1.988H39.4186L41.7766 6.2V1.988H43.0366V8ZM44.8154 2.537C45.0854 2.309 45.3704 2.144 45.6704 2.042C45.9764 1.94 46.3364 1.889 46.7504 1.889C47.1644 1.889 47.6564 1.967 48.2264 2.123L48.0374 3.059C47.6354 2.963 47.2154 2.915 46.7774 2.915C46.3394 2.915 45.9794 3.068 45.6974 3.374C45.4154 3.674 45.2744 4.199 45.2744 4.949C45.2744 6.347 45.7394 7.046 46.6694 7.046C46.8554 7.046 47.0504 7.028 47.2544 6.992V5.876H46.4084V4.931H48.4334V7.721C47.7734 7.985 47.1014 8.117 46.4174 8.117C45.7334 8.117 45.1574 7.868 44.6894 7.37C44.2214 6.866 43.9754 6.068 43.9514 4.976C43.9514 4.406 44.0294 3.914 44.1854 3.5C44.3414 3.08 44.5514 2.759 44.8154 2.537Z" fill="white"/>
</svg>
